
<svg version="1.1" xmlns="http://www.w3.org/2000/svg" xmlns:xlink="http://www.w3.org/1999/xlink" preserveAspectRatio="xMidYMid meet" viewBox="0 0 640 640" width="640" height="640"><defs><path d="M0.56 -182.09C-7.12 -182.09 -16.95 -178.25 -16.95 -169.34C-16.95 -158.29 -1.74 -153.99 6.7 -151.08C38.95 -140.33 45.56 -124.83 45.56 -110.25C45.56 -92.44 32.81 -70.49 0.41 -70.49C-21.4 -70.49 -43.51 -82.16 -43.51 -106.56C-43.51 -119.61 -35.68 -127.29 -34.15 -127.29C-31.54 -127.29 -34.15 -96.12 -1.13 -96.12C10.54 -96.12 20.68 -101.19 20.68 -110.71C20.68 -121.91 6.86 -126.52 -2.05 -129.28C-35.68 -139.72 -39.37 -154.92 -39.37 -167.96C-39.37 -180.86 -30.61 -202.81 0.56 -202.81C22.83 -202.81 38.65 -190.99 38.65 -186.54C38.65 -182.24 30.66 -168.27 26.36 -168.27C22.52 -168.27 16.53 -182.09 0.56 -182.09" id="hVsbaqRX"></path><path d="M0.56 -182.09C-7.12 -182.09 -16.95 -178.25 -16.95 -169.34C-16.95 -158.29 -1.74 -153.99 6.7 -151.08C38.95 -140.33 45.56 -124.83 45.56 -110.25C45.56 -92.44 32.81 -70.49 0.41 -70.49C-21.4 -70.49 -43.51 -82.16 -43.51 -106.56C-43.51 -119.61 -35.68 -127.29 -34.15 -127.29C-31.54 -127.29 -34.15 -96.12 -1.13 -96.12C10.54 -96.12 20.68 -101.19 20.68 -110.71C20.68 -121.91 6.86 -126.52 -2.05 -129.28C-35.68 -139.72 -39.37 -154.92 -39.37 -167.96C-39.37 -180.86 -30.61 -202.81 0.56 -202.81C22.83 -202.81 38.65 -190.99 38.65 -186.54C38.65 -182.24 30.66 -168.27 26.36 -168.27C22.52 -168.27 16.53 -182.09 0.56 -182.09" id="d120Mzqdqr"></path><path d="M128.94 -124.21C128.94 -67.88 124.95 -70.49 113.89 -70.49C97.77 -70.49 110.05 -79.08 101.3 -79.08C99.92 -79.08 96.39 -75.86 93.62 -74.02C90.86 -72.33 87.33 -70.49 82.26 -70.49C69.51 -70.49 57.69 -78.47 57.69 -122.37C57.69 -124.98 58.76 -171.03 65.21 -171.03C66.62 -171.03 77.93 -171.03 79.34 -171.03C81.34 -171.03 85.48 -171.8 85.48 -168.73C85.48 -166.43 78.42 -151.08 78.42 -122.07C78.42 -113.47 78.27 -90.14 91.47 -90.14C96.54 -90.14 108.21 -91.67 108.21 -124.68C108.21 -143.1 102.84 -166.73 102.84 -169.19C102.84 -171.19 106.37 -171.03 108.06 -171.03C110.91 -171.03 119.48 -171.03 122.34 -171.03C128.79 -171.03 128.94 -138.8 128.94 -124.21Z" id="a5XCy1IZIG"></path><path d="M128.94 -124.21C128.94 -67.88 124.95 -70.49 113.89 -70.49C97.77 -70.49 110.05 -79.08 101.3 -79.08C99.92 -79.08 96.39 -75.86 93.62 -74.02C90.86 -72.33 87.33 -70.49 82.26 -70.49C69.51 -70.49 57.69 -78.47 57.69 -122.37C57.69 -124.98 58.76 -171.03 65.21 -171.03C66.62 -171.03 77.93 -171.03 79.34 -171.03C81.34 -171.03 85.48 -171.8 85.48 -168.73C85.48 -166.43 78.42 -151.08 78.42 -122.07C78.42 -113.47 78.27 -90.14 91.47 -90.14C96.54 -90.14 108.21 -91.67 108.21 -124.68C108.21 -143.1 102.84 -166.73 102.84 -169.19C102.84 -171.19 106.37 -171.03 108.06 -171.03C110.91 -171.03 119.48 -171.03 122.34 -171.03C128.79 -171.03 128.94 -138.8 128.94 -124.21Z" id="a2fuCl1nGs"></path><path d="M304.47 -118.84C304.47 -161.36 303.24 -170.88 307.54 -171.03C308.82 -171.03 319.01 -171.03 320.29 -171.03C322.59 -171.03 325.35 -171.8 325.51 -168.88C325.82 -166.58 326.12 -163.67 329.19 -163.67C331.5 -163.67 334.11 -166.12 337.33 -168.58C340.56 -170.88 344.24 -173.34 348.39 -173.34C356.22 -173.34 362.67 -166.58 362.67 -158.29C362.67 -147.55 353.92 -141.1 349.31 -141.1C347.47 -141.1 349.62 -151.38 339.02 -151.38C326.12 -151.38 325.2 -130.66 325.2 -121.45C325.2 -90.91 330.42 -78.01 330.42 -75.25C330.27 -72.79 326.89 -72.79 325.2 -72.79C322.75 -72.79 315.37 -72.79 312.92 -72.79C307.23 -72.79 304.47 -68.03 304.47 -118.84Z" id="f9iYRsUAsS"></path><path d="M304.47 -118.84C304.47 -161.36 303.24 -170.88 307.54 -171.03C308.82 -171.03 319.01 -171.03 320.29 -171.03C322.59 -171.03 325.35 -171.8 325.51 -168.88C325.82 -166.58 326.12 -163.67 329.19 -163.67C331.5 -163.67 334.11 -166.12 337.33 -168.58C340.56 -170.88 344.24 -173.34 348.39 -173.34C356.22 -173.34 362.67 -166.58 362.67 -158.29C362.67 -147.55 353.92 -141.1 349.31 -141.1C347.47 -141.1 349.62 -151.38 339.02 -151.38C326.12 -151.38 325.2 -130.66 325.2 -121.45C325.2 -90.91 330.42 -78.01 330.42 -75.25C330.27 -72.79 326.89 -72.79 325.2 -72.79C322.75 -72.79 315.37 -72.79 312.92 -72.79C307.23 -72.79 304.47 -68.03 304.47 -118.84Z" id="a15FWNTtxJ"></path><path d="M476 -75.1C476 -75.86 476.16 -76.63 476.46 -77.24C481.84 -91.37 486.29 -105.79 486.29 -120.99C486.29 -131.43 482.15 -134.96 471.86 -134.96C456.35 -134.96 439.76 -127.59 439.76 -109.79C439.76 -98.73 441.76 -86.76 446.06 -76.63C446.36 -76.02 446.67 -74.94 446.67 -74.33C446.67 -72.18 442.99 -72.79 441.76 -72.79C439.5 -72.79 421.44 -72.79 419.18 -72.79C414.88 -72.79 414.88 -117 414.88 -123.6C414.88 -134.81 417.95 -200.51 425.33 -200.51C427.41 -200.51 444.12 -200.51 446.21 -200.51C447.13 -200.51 450.82 -200.97 450.82 -199.12C450.82 -197.13 440.38 -174.87 440.38 -158.6C440.38 -154.76 441.76 -151.08 444.06 -151.08C448.82 -151.08 448.82 -155.68 469.71 -155.68C477.23 -155.68 483.22 -153.99 483.22 -160.44C483.22 -175.02 469.71 -196.98 469.71 -198.97C469.71 -200.97 474.32 -200.51 475.24 -200.51C477.25 -200.51 493.34 -200.51 495.35 -200.51C501.19 -200.51 508.72 -156.3 508.72 -123.6C508.72 -116.23 508.72 -72.79 503.8 -72.79C499.38 -72.79 486.11 -72.79 481.69 -72.79C480.15 -72.79 476 -72.64 476 -75.1Z" id="lxCd5CIYF"></path><path d="M476 -75.1C476 -75.86 476.16 -76.63 476.46 -77.24C481.84 -91.37 486.29 -105.79 486.29 -120.99C486.29 -131.43 482.15 -134.96 471.86 -134.96C456.35 -134.96 439.76 -127.59 439.76 -109.79C439.76 -98.73 441.76 -86.76 446.06 -76.63C446.36 -76.02 446.67 -74.94 446.67 -74.33C446.67 -72.18 442.99 -72.79 441.76 -72.79C439.5 -72.79 421.44 -72.79 419.18 -72.79C414.88 -72.79 414.88 -117 414.88 -123.6C414.88 -134.81 417.95 -200.51 425.33 -200.51C427.41 -200.51 444.12 -200.51 446.21 -200.51C447.13 -200.51 450.82 -200.97 450.82 -199.12C450.82 -197.13 440.38 -174.87 440.38 -158.6C440.38 -154.76 441.76 -151.08 444.06 -151.08C448.82 -151.08 448.82 -155.68 469.71 -155.68C477.23 -155.68 483.22 -153.99 483.22 -160.44C483.22 -175.02 469.71 -196.98 469.71 -198.97C469.71 -200.97 474.32 -200.51 475.24 -200.51C477.25 -200.51 493.34 -200.51 495.35 -200.51C501.19 -200.51 508.72 -156.3 508.72 -123.6C508.72 -116.23 508.72 -72.79 503.8 -72.79C499.38 -72.79 486.11 -72.79 481.69 -72.79C480.15 -72.79 476 -72.64 476 -75.1Z" id="g1hA5oCCaw"></path><path d="M604.23 -118.84C604.23 -161.36 603 -170.88 607.3 -171.03C608.58 -171.03 618.78 -171.03 620.05 -171.03C622.35 -171.03 625.12 -171.8 625.27 -168.88C625.58 -166.58 625.89 -163.67 628.96 -163.67C631.26 -163.67 633.87 -166.12 637.1 -168.58C640.32 -170.88 644.01 -173.34 648.15 -173.34C655.99 -173.34 662.43 -166.58 662.43 -158.29C662.43 -147.55 653.68 -141.1 649.07 -141.1C647.23 -141.1 649.38 -151.38 638.79 -151.38C625.89 -151.38 624.96 -130.66 624.96 -121.45C624.96 -90.91 630.19 -78.01 630.19 -75.25C630.03 -72.79 626.65 -72.79 624.96 -72.79C622.51 -72.79 615.14 -72.79 612.68 -72.79C607 -72.79 604.23 -68.03 604.23 -118.84Z" id="b54c540d0T"></path><path d="M604.23 -118.84C604.23 -161.36 603 -170.88 607.3 -171.03C608.58 -171.03 618.78 -171.03 620.05 -171.03C622.35 -171.03 625.12 -171.8 625.27 -168.88C625.58 -166.58 625.89 -163.67 628.96 -163.67C631.26 -163.67 633.87 -166.12 637.1 -168.58C640.32 -170.88 644.01 -173.34 648.15 -173.34C655.99 -173.34 662.43 -166.58 662.43 -158.29C662.43 -147.55 653.68 -141.1 649.07 -141.1C647.23 -141.1 649.38 -151.38 638.79 -151.38C625.89 -151.38 624.96 -130.66 624.96 -121.45C624.96 -90.91 630.19 -78.01 630.19 -75.25C630.03 -72.79 626.65 -72.79 624.96 -72.79C622.51 -72.79 615.14 -72.79 612.68 -72.79C607 -72.79 604.23 -68.03 604.23 -118.84Z" id="f9UZxunDr"></path><path d="M832.59 -97.97C832.59 -105.18 836.27 -114.39 837.5 -114.39C838.27 -114.39 842.11 -91.21 863.91 -91.21C870.21 -91.21 877.58 -94.44 877.58 -102.27C877.58 -118.08 836.12 -113.93 836.12 -144.48C836.12 -163.21 851.17 -173.34 867.75 -173.34C886.95 -173.34 897.55 -161.82 897.55 -158.75C897.55 -155.84 888.95 -143.4 885.41 -143.4C881.42 -143.4 880.5 -155.22 866.37 -155.22C861.61 -155.22 855.16 -153.07 855.16 -148.47C855.16 -132.66 900 -132.97 900 -101.8C900 -81.85 883.42 -70.49 864.99 -70.49C848.71 -70.49 832.59 -80.01 832.59 -97.97" id="a15SwO9V8N"></path><path d="M832.59 -97.97C832.59 -105.18 836.27 -114.39 837.5 -114.39C838.27 -114.39 842.11 -91.21 863.91 -91.21C870.21 -91.21 877.58 -94.44 877.58 -102.27C877.58 -118.08 836.12 -113.93 836.12 -144.48C836.12 -163.21 851.17 -173.34 867.75 -173.34C886.95 -173.34 897.55 -161.82 897.55 -158.75C897.55 -155.84 888.95 -143.4 885.41 -143.4C881.42 -143.4 880.5 -155.22 866.37 -155.22C861.61 -155.22 855.16 -153.07 855.16 -148.47C855.16 -132.66 900 -132.97 900 -101.8C900 -81.85 883.42 -70.49 864.99 -70.49C848.71 -70.49 832.59 -80.01 832.59 -97.97" id="k2Q2W7Qpv"></path><path d="M-259.13 226.67C-249.9 226.73 -246.83 231.98 -245.86 237.19C-244.89 242.39 -250.88 248.7 -257.63 248.51C-260.99 251.4 -263.26 252.59 -268.69 255.01C-270.5 253.29 -275.93 248.16 -277.74 246.45C-273.88 242.14 -263.8 226.64 -259.13 226.67Z" id="fjfGTej9"></path><path d="M-259.13 226.67C-249.9 226.73 -246.83 231.98 -245.86 237.19C-244.89 242.39 -250.88 248.7 -257.63 248.51C-260.99 251.4 -263.26 252.59 -268.69 255.01C-270.5 253.29 -275.93 248.16 -277.74 246.45C-273.88 242.14 -263.8 226.64 -259.13 226.67Z" id="aoPIoZ7dp"></path><path d="M-187.82 226.67C-197.04 226.73 -200.11 231.98 -201.08 237.19C-202.05 242.39 -196.07 248.7 -189.31 248.51C-185.95 251.4 -183.68 252.59 -178.24 255.01C-176.44 253.29 -171.01 248.16 -169.21 246.45C-173.06 242.14 -183.14 226.64 -187.82 226.67Z" id="fJ3Oji8b"></path><path d="M-187.82 226.67C-197.04 226.73 -200.11 231.98 -201.08 237.19C-202.05 242.39 -196.07 248.7 -189.31 248.51C-185.95 251.4 -183.68 252.59 -178.24 255.01C-176.44 253.29 -171.01 248.16 -169.21 246.45C-173.06 242.14 -183.14 226.64 -187.82 226.67Z" id="biUtdd6HD"></path><path d="M-131.89 456.45C-137.43 474.89 -152.43 487.29 -161.03 490.39C-159.85 492.69 -158.7 494.9 -157.58 497.04C-165.09 506.78 -187.8 512.43 -202.63 503.87C-202.99 502.38 -203.35 500.88 -203.71 499.37C-210.39 495.61 -217.04 494.63 -223.47 494.63C-229.91 494.63 -236.55 495.61 -243.23 499.37C-243.59 500.88 -243.95 502.38 -244.31 503.87C-259.14 512.43 -281.85 506.78 -289.36 497.04C-288.24 494.91 -287.09 492.69 -285.91 490.39C-294.52 487.29 -309.51 474.89 -315.05 456.45C-282.64 420.09 -254.57 361.41 -242.87 315.96C-235.11 315.96 -211.83 315.96 -204.07 315.96C-192.36 361.41 -164.3 420.09 -131.89 456.45Z" id="a8lincxA4"></path><path d="M-131.89 456.45C-137.43 474.89 -152.43 487.29 -161.03 490.39C-159.85 492.69 -158.7 494.9 -157.58 497.04C-165.09 506.78 -187.8 512.43 -202.63 503.87C-202.99 502.38 -203.35 500.88 -203.71 499.37C-210.39 495.61 -217.04 494.63 -223.47 494.63C-229.91 494.63 -236.55 495.61 -243.23 499.37C-243.59 500.88 -243.95 502.38 -244.31 503.87C-259.14 512.43 -281.85 506.78 -289.36 497.04C-288.24 494.91 -287.09 492.69 -285.91 490.39C-294.52 487.29 -309.51 474.89 -315.05 456.45C-282.64 420.09 -254.57 361.41 -242.87 315.96C-235.11 315.96 -211.83 315.96 -204.07 315.96C-192.36 361.41 -164.3 420.09 -131.89 456.45Z" id="b6Xpg1R0F"></path><path d="M-214.49 435.7C-208.01 470.86 -205.77 485.95 -202.63 503.87C-206.57 487.67 -209.75 471.87 -214.49 435.7" id="a170nH34wu"></path><path d="M-214.49 435.7C-208.01 470.86 -205.77 485.95 -202.63 503.87C-206.57 487.67 -209.75 471.87 -214.49 435.7" id="a5HkN4E4CQ"></path><path d="M-157.59 497.04C-173.78 469.79 -195.77 424.63 -208.01 380.17C-197.2 416.86 -173.78 466.09 -157.59 497.04" id="dNybYPWZ"></path><path d="M-157.59 497.04C-173.78 469.79 -195.77 424.63 -208.01 380.17C-197.2 416.86 -173.78 466.09 -157.59 497.04" id="a1kYVO2s3K"></path><path d="M-232.45 435.7C-238.93 470.86 -241.17 485.95 -244.31 503.87C-240.37 487.67 -237.19 471.87 -232.45 435.7" id="a24De9cgpg"></path><path d="M-232.45 435.7C-238.93 470.86 -241.17 485.95 -244.31 503.87C-240.37 487.67 -237.19 471.87 -232.45 435.7" id="b7Q55LOxF"></path><path d="M-289.36 497.04C-273.16 469.79 -251.17 424.63 -238.93 380.17C-249.74 416.86 -273.15 466.09 -289.36 497.04" id="e3Rbnn9sQ"></path><path d="M-289.36 497.04C-273.16 469.79 -251.17 424.63 -238.93 380.17C-249.74 416.86 -273.15 466.09 -289.36 497.04" id="g1U52myop"></path><path d="M-177.87 477.25C-175.38 481.07 -172.63 487.77 -174.08 491.72C-169.15 511.57 -165.57 537.77 -164.21 562.16C-166.68 565.93 -176.95 569.46 -184.26 562.16C-186.24 553.06 -195.92 545.57 -199.67 530.16C-203.43 514.74 -197.71 505.49 -199.56 494.68C-210.25 487.02 -220.12 471.61 -222.67 461.35C-222.94 461.43 -223.21 461.45 -223.47 461.45C-223.74 461.45 -224 461.43 -224.28 461.35C-226.83 471.61 -236.7 487.02 -247.39 494.68C-249.23 505.49 -243.51 514.74 -247.27 530.16C-251.02 545.57 -260.7 553.06 -262.68 562.16C-270 569.46 -280.27 565.93 -282.73 562.16C-281.37 537.77 -277.77 511.56 -272.84 491.71C-274.25 487.76 -271.56 481.09 -269.07 477.27C-266.12 459.36 -252.59 437.7 -242.87 426.55C-235.11 426.55 -211.83 426.55 -204.07 426.55C-194.35 437.7 -180.83 459.33 -177.87 477.25Z" id="aCySaQZKk"></path><path d="M-177.87 477.25C-175.38 481.07 -172.63 487.77 -174.08 491.72C-169.15 511.57 -165.57 537.77 -164.21 562.16C-166.68 565.93 -176.95 569.46 -184.26 562.16C-186.24 553.06 -195.92 545.57 -199.67 530.16C-203.43 514.74 -197.71 505.49 -199.56 494.68C-210.25 487.02 -220.12 471.61 -222.67 461.35C-222.94 461.43 -223.21 461.45 -223.47 461.45C-223.74 461.45 -224 461.43 -224.28 461.35C-226.83 471.61 -236.7 487.02 -247.39 494.68C-249.23 505.49 -243.51 514.74 -247.27 530.16C-251.02 545.57 -260.7 553.06 -262.68 562.16C-270 569.46 -280.27 565.93 -282.73 562.16C-281.37 537.77 -277.77 511.56 -272.84 491.71C-274.25 487.76 -271.56 481.09 -269.07 477.27C-266.12 459.36 -252.59 437.7 -242.87 426.55C-235.11 426.55 -211.83 426.55 -204.07 426.55C-194.35 437.7 -180.83 459.33 -177.87 477.25Z" id="a5u26LadBM"></path><path d="M-168.37 245.6C-174.29 244.47 -177.61 249.68 -180.65 254.49C-173.3 264.37 -167.66 286.89 -156.09 289.73C-165.53 293.65 -171.08 302.75 -171.08 313.23C-181.63 309.08 -191.27 311.68 -195.45 318.37C-196.38 318.11 -197.34 317.74 -198.29 317.3C-199.21 326.92 -209.92 345.13 -223.47 350.92C-237.02 345.13 -247.73 326.92 -248.65 317.3C-249.61 317.74 -250.56 318.11 -251.49 318.37C-255.67 311.68 -265.31 309.08 -275.86 313.23C-275.86 302.75 -281.41 293.65 -290.85 289.73C-279.28 286.89 -273.64 264.37 -266.28 254.49C-269.33 249.68 -272.65 244.47 -278.56 245.6C-291.93 256.27 -317.09 280.57 -317.03 288.67C-316.83 313.23 -290.36 344.74 -273.16 348.89C-270.46 358.17 -266.59 372.49 -257.28 378.77C-255.5 392.69 -246.7 405.15 -242.87 419.3C-240.98 423.97 -231.72 429.58 -223.47 429.58C-215.22 429.58 -207.09 423.25 -204.07 419.3C-200.24 405.15 -191.44 392.69 -189.65 378.77C-180.35 372.49 -176.48 358.17 -173.78 348.89C-156.58 344.74 -130.12 313.23 -129.92 288.67C-129.85 280.57 -155.02 256.27 -168.37 245.6" id="e777cRwAim"></path><path d="M-168.37 245.6C-174.29 244.47 -177.61 249.68 -180.65 254.49C-173.3 264.37 -167.66 286.89 -156.09 289.73C-165.53 293.65 -171.08 302.75 -171.08 313.23C-181.63 309.08 -191.27 311.68 -195.45 318.37C-196.38 318.11 -197.34 317.74 -198.29 317.3C-199.21 326.92 -209.92 345.13 -223.47 350.92C-237.02 345.13 -247.73 326.92 -248.65 317.3C-249.61 317.74 -250.56 318.11 -251.49 318.37C-255.67 311.68 -265.31 309.08 -275.86 313.23C-275.86 302.75 -281.41 293.65 -290.85 289.73C-279.28 286.89 -273.64 264.37 -266.28 254.49C-269.33 249.68 -272.65 244.47 -278.56 245.6C-291.93 256.27 -317.09 280.57 -317.03 288.67C-316.83 313.23 -290.36 344.74 -273.16 348.89C-270.46 358.17 -266.59 372.49 -257.28 378.77C-255.5 392.69 -246.7 405.15 -242.87 419.3C-240.98 423.97 -231.72 429.58 -223.47 429.58C-215.22 429.58 -207.09 423.25 -204.07 419.3C-200.24 405.15 -191.44 392.69 -189.65 378.77C-180.35 372.49 -176.48 358.17 -173.78 348.89C-156.58 344.74 -130.12 313.23 -129.92 288.67C-129.85 280.57 -155.02 256.27 -168.37 245.6" id="b1mAT70nWN"></path><path d="M-223.47 347.37C-217.26 346.33 -205.94 326.42 -202.63 314.75C-207.81 311.05 -212.24 305.42 -212.68 300.05C-214.84 300.05 -232.1 300.05 -234.26 300.05C-234.7 305.42 -239.13 311.05 -244.32 314.75C-241.01 326.42 -229.68 346.33 -223.47 347.37" id="bkrIyBHZ1"></path><path d="M-223.47 347.37C-217.26 346.33 -205.94 326.42 -202.63 314.75C-207.81 311.05 -212.24 305.42 -212.68 300.05C-214.84 300.05 -232.1 300.05 -234.26 300.05C-234.7 305.42 -239.13 311.05 -244.32 314.75C-241.01 326.42 -229.68 346.33 -223.47 347.37" id="btsAfoqj5"></path><path d="M-223.47 355.67C-209.92 349.87 -199.21 326.92 -198.29 317.3C-199.75 316.62 -201.21 315.76 -202.63 314.75C-205.94 326.42 -217.26 341.39 -223.47 342.43C-229.68 341.39 -241.01 326.42 -244.32 314.75C-245.73 315.76 -247.19 316.62 -248.65 317.3C-247.73 326.92 -237.02 349.87 -223.47 355.67" id="dbJryBZi"></path><path d="M-223.47 355.67C-209.92 349.87 -199.21 326.92 -198.29 317.3C-199.75 316.62 -201.21 315.76 -202.63 314.75C-205.94 326.42 -217.26 341.39 -223.47 342.43C-229.68 341.39 -241.01 326.42 -244.32 314.75C-245.73 315.76 -247.19 316.62 -248.65 317.3C-247.73 326.92 -237.02 349.87 -223.47 355.67" id="fbZEIWdMc"></path><path d="M-223.47 311.41C-229.14 311.41 -236.82 296.19 -238.5 290.42C-239.79 286.01 -237.66 283.07 -238.71 272.71C-239.24 267.51 -235.66 259.46 -223.47 259.46C-211.28 259.46 -207.7 267.51 -208.23 272.71C-209.28 283.07 -207.16 286.01 -208.44 290.42C-210.12 296.19 -217.79 311.41 -223.47 311.41" id="a3ery0m4h"></path><path d="M-223.47 311.41C-229.14 311.41 -236.82 296.19 -238.5 290.42C-239.79 286.01 -237.66 283.07 -238.71 272.71C-239.24 267.51 -235.66 259.46 -223.47 259.46C-211.28 259.46 -207.7 267.51 -208.23 272.71C-209.28 283.07 -207.16 286.01 -208.44 290.42C-210.12 296.19 -217.79 311.41 -223.47 311.41" id="crQ7FByB7"></path><path d="M-210.64 268.96C-210.47 270.38 -210.73 271.77 -211.06 273.17C-212.37 267.86 -218.22 265.49 -226.63 262.94C-229.79 264.68 -235.52 266.48 -236.96 271.53C-238.41 276.58 -236.62 279.2 -238.77 284.65C-239.02 280.19 -238.34 277.8 -240.62 273.11C-243.52 267.1 -245.36 256.51 -228.28 257.3C-220.77 254.02 -211.5 255.15 -207.02 260.13C-202.55 265.12 -208.46 275.48 -208.46 281.11C-209.57 275.66 -207.68 273.07 -210.64 268.96" id="b1f44igEZ3"></path><path d="M-210.64 268.96C-210.47 270.38 -210.73 271.77 -211.06 273.17C-212.37 267.86 -218.22 265.49 -226.63 262.94C-229.79 264.68 -235.52 266.48 -236.96 271.53C-238.41 276.58 -236.62 279.2 -238.77 284.65C-239.02 280.19 -238.34 277.8 -240.62 273.11C-243.52 267.1 -245.36 256.51 -228.28 257.3C-220.77 254.02 -211.5 255.15 -207.02 260.13C-202.55 265.12 -208.46 275.48 -208.46 281.11C-209.57 275.66 -207.68 273.07 -210.64 268.96" id="b1bwVo5GoD"></path><path d="M-164.7 316.54C-176.72 309.62 -191.54 310.81 -196.62 320.69C-192.76 310.81 -178.72 307.45 -164.7 316.54" id="bAQ7Ohait"></path><path d="M-164.7 316.54C-176.72 309.62 -191.54 310.81 -196.62 320.69C-192.76 310.81 -178.72 307.45 -164.7 316.54" id="gVjePzSLs"></path><path d="M-145.73 287.69C-161.63 290.19 -169.48 300.27 -171.08 313.23C-171.08 299.35 -161.33 287.88 -145.73 287.69" id="c1jvOGZZmY"></path><path d="M-145.73 287.69C-161.63 290.19 -169.48 300.27 -171.08 313.23C-171.08 299.35 -161.33 287.88 -145.73 287.69" id="a5ngKWIdK"></path><path d="M-198.29 381.83C-180.65 378.77 -176.92 350.43 -171.08 341.39C-175.03 347.72 -177.94 380.05 -198.29 381.83" id="d8AIpRP1J"></path><path d="M-198.29 381.83C-180.65 378.77 -176.92 350.43 -171.08 341.39C-175.03 347.72 -177.94 380.05 -198.29 381.83" id="b2wVHTWHU"></path><path d="M-282.24 316.54C-270.22 309.62 -255.4 310.81 -250.32 320.69C-254.18 310.81 -268.21 307.45 -282.24 316.54" id="cgtUZwyCS"></path><path d="M-282.24 316.54C-270.22 309.62 -255.4 310.81 -250.32 320.69C-254.18 310.81 -268.21 307.45 -282.24 316.54" id="b4QU0Ixh3e"></path><path d="M-301.22 287.69C-285.3 290.19 -277.46 300.27 -275.86 313.23C-275.86 299.35 -285.6 287.88 -301.22 287.69" id="p6vo3YCiB3"></path><path d="M-301.22 287.69C-285.3 290.19 -277.46 300.27 -275.86 313.23C-275.86 299.35 -285.6 287.88 -301.22 287.69" id="bMk9n9Bei"></path><path d="M-248.65 381.83C-266.28 378.77 -270.02 350.43 -275.86 341.39C-271.91 347.72 -269.01 380.05 -248.65 381.83" id="d1FwceaTQ"></path><path d="M-248.65 381.83C-266.28 378.77 -270.02 350.43 -275.86 341.39C-271.91 347.72 -269.01 380.05 -248.65 381.83" id="i29SGV4OtL"></path><path d="M-223.47 432.86C-217.04 432.86 -209.69 431.02 -204.07 426.55C-203.18 423.91 -203.13 421.47 -204.07 419.29C-209.69 423.77 -217.04 425.62 -223.47 425.62C-229.91 425.62 -237.25 423.77 -242.87 419.29C-243.81 421.47 -243.76 423.91 -242.87 426.55C-237.25 431.02 -229.91 432.86 -223.47 432.86" id="a299CDVBUs"></path><path d="M-223.47 432.86C-217.04 432.86 -209.69 431.02 -204.07 426.55C-203.18 423.91 -203.13 421.47 -204.07 419.29C-209.69 423.77 -217.04 425.62 -223.47 425.62C-229.91 425.62 -237.25 423.77 -242.87 419.29C-243.81 421.47 -243.76 423.91 -242.87 426.55C-237.25 431.02 -229.91 432.86 -223.47 432.86" id="a2guU97C31"></path><path d="M-269.63 482.66C-265.64 460.27 -253.59 442.49 -242.87 426.55C-253.59 438.85 -268.95 463.92 -269.63 482.66" id="j2YLrn9QZU"></path><path d="M-269.63 482.66C-265.64 460.27 -253.59 442.49 -242.87 426.55C-253.59 438.85 -268.95 463.92 -269.63 482.66" id="dGbVBJZsO"></path><path d="M-269.63 494.63C-274.08 492.83 -271.77 483.1 -268.9 477.27C-272.27 482.44 -276.18 492.83 -269.63 494.63" id="b1rJGrdnG3"></path><path d="M-269.63 494.63C-274.08 492.83 -271.77 483.1 -268.9 477.27C-272.27 482.44 -276.18 492.83 -269.63 494.63" id="bdZmcFNKo"></path><path d="M-251.18 497.04C-240.49 488.2 -229.01 472.81 -224.27 461.35C-227.12 472.81 -239.12 490.71 -251.18 497.04" id="bY8TccRxb"></path><path d="M-251.18 497.04C-240.49 488.2 -229.01 472.81 -224.27 461.35C-227.12 472.81 -239.12 490.71 -251.18 497.04" id="eb3wnguXQ"></path><path d="M-177.31 482.66C-181.3 460.27 -193.35 442.49 -204.07 426.55C-193.35 438.85 -177.99 463.92 -177.31 482.66" id="b17wEoxrqT"></path><path d="M-177.31 482.66C-181.3 460.27 -193.35 442.49 -204.07 426.55C-193.35 438.85 -177.99 463.92 -177.31 482.66" id="i1XgeKBSRB"></path><path d="M-177.31 494.63C-172.87 492.83 -175.21 483.1 -178.07 477.27C-174.71 482.44 -170.76 492.83 -177.31 494.63" id="do5NSLA6b"></path><path d="M-177.31 494.63C-172.87 492.83 -175.21 483.1 -178.07 477.27C-174.71 482.44 -170.76 492.83 -177.31 494.63" id="i3QX4bCerC"></path><path d="M-195.77 497.04C-206.45 488.2 -217.94 472.81 -222.67 461.35C-219.82 472.81 -207.83 490.71 -195.77 497.04" id="b6ZUJL5dT"></path><path d="M-195.77 497.04C-206.45 488.2 -217.94 472.81 -222.67 461.35C-219.82 472.81 -207.83 490.71 -195.77 497.04" id="a8vE74wey9"></path><path d="M-230.2 451.44C-228.49 458.82 -225.82 460.27 -223.47 460.27C-221.12 460.27 -218.45 458.82 -216.74 451.44C-218.45 458.82 -221.12 461.45 -223.47 461.45C-225.82 461.45 -228.49 458.82 -230.2 451.44" id="b3yBG5IV0B"></path><path d="M-230.2 451.44C-228.49 458.82 -225.82 460.27 -223.47 460.27C-221.12 460.27 -218.45 458.82 -216.74 451.44C-218.45 458.82 -221.12 461.45 -223.47 461.45C-225.82 461.45 -228.49 458.82 -230.2 451.44" id="f2DRwvdBmv"></path><path d="M-153.24 577.98C-149.17 577.43 -145.06 578 -142.37 579.76C-138.06 582.57 -131.3 595.17 -148.89 598.33C-163.61 600.98 -169.19 591.17 -175.37 584.19C-175.77 584.34 -177.15 584.7 -177.15 584.7C-180.9 585.88 -183.86 583.52 -186.44 580.55C-186.44 574.42 -186.44 570.07 -184.26 562.16C-180.37 562.31 -168.7 562.76 -164.81 562.92C-162.53 575.25 -155.34 575.88 -153.24 577.98Z" id="f26KSu2Nw7"></path><path d="M-153.24 577.98C-149.17 577.43 -145.06 578 -142.37 579.76C-138.06 582.57 -131.3 595.17 -148.89 598.33C-163.61 600.98 -169.19 591.17 -175.37 584.19C-175.77 584.34 -177.15 584.7 -177.15 584.7C-180.9 585.88 -183.86 583.52 -186.44 580.55C-186.44 574.42 -186.44 570.07 -184.26 562.16C-180.37 562.31 -168.7 562.76 -164.81 562.92C-162.53 575.25 -155.34 575.88 -153.24 577.98Z" id="cbyfo2RUC"></path><path d="M-163.11 582.13C-156.77 575.82 -146.14 576.45 -142.37 579.76C-147.5 576.79 -157.78 578.33 -163.11 582.13" id="ciq43zOE6"></path><path d="M-163.11 582.13C-156.77 575.82 -146.14 576.45 -142.37 579.76C-147.5 576.79 -157.78 578.33 -163.11 582.13" id="btNf22a4w"></path><path d="M-165.91 594.42C-169.75 590.51 -172.82 584.55 -179.12 580.55C-174.58 584.1 -171.15 590.26 -165.91 594.42" id="a1zOwmuJdv"></path><path d="M-165.91 594.42C-169.75 590.51 -172.82 584.55 -179.12 580.55C-174.58 584.1 -171.15 590.26 -165.91 594.42" id="a3RRW9XqzM"></path><path d="M-293.7 577.98C-297.76 577.43 -301.88 578 -304.57 579.76C-308.88 582.57 -315.64 595.17 -298.05 598.33C-283.33 600.98 -277.75 591.17 -271.57 584.19C-271.17 584.34 -269.79 584.7 -269.79 584.7C-266.04 585.88 -263.08 583.52 -260.5 580.55C-260.5 574.42 -260.5 570.07 -262.68 562.16C-266.57 562.31 -278.24 562.76 -282.12 562.92C-284.41 575.25 -291.6 575.88 -293.7 577.98Z" id="a55GrsJwQ"></path><path d="M-293.7 577.98C-297.76 577.43 -301.88 578 -304.57 579.76C-308.88 582.57 -315.64 595.17 -298.05 598.33C-283.33 600.98 -277.75 591.17 -271.57 584.19C-271.17 584.34 -269.79 584.7 -269.79 584.7C-266.04 585.88 -263.08 583.52 -260.5 580.55C-260.5 574.42 -260.5 570.07 -262.68 562.16C-266.57 562.31 -278.24 562.76 -282.12 562.92C-284.41 575.25 -291.6 575.88 -293.7 577.98Z" id="ecHUcAf5b"></path><path d="M-283.83 582.13C-290.17 575.82 -300.8 576.45 -304.57 579.76C-299.44 576.79 -289.16 578.33 -283.83 582.13" id="d1461XTG2F"></path><path d="M-283.83 582.13C-290.17 575.82 -300.8 576.45 -304.57 579.76C-299.44 576.79 -289.16 578.33 -283.83 582.13" id="a2aiAN0YWm"></path><path d="M-281.03 594.42C-277.19 590.51 -274.12 584.55 -267.82 580.55C-272.36 584.1 -275.79 590.26 -281.03 594.42" id="b105FRX6g2"></path><path d="M-281.03 594.42C-277.19 590.51 -274.12 584.55 -267.82 580.55C-272.36 584.1 -275.79 590.26 -281.03 594.42" id="cgyQV2O4Q"></path><path d="M-211.06 273.17C-209.89 270.15 -209.03 265.62 -214.64 262.93C-209.89 266.61 -210.29 269.86 -211.06 273.17" id="b1wXL1HAv"></path><path d="M-211.06 273.17C-209.89 270.15 -209.03 265.62 -214.64 262.93C-209.89 266.61 -210.29 269.86 -211.06 273.17" id="b5WFP56z4z"></path><path d="M-223.47 407.37C-230.64 407.37 -235.18 406.26 -241.17 401.91C-238.57 387.54 -237.42 382.54 -223.47 366.34C-209.52 382.54 -208.37 387.54 -205.77 401.91C-211.76 406.26 -216.31 407.37 -223.47 407.37" id="c4IenGr9x"></path><path d="M-223.47 407.37C-230.64 407.37 -235.18 406.26 -241.17 401.91C-238.57 387.54 -237.42 382.54 -223.47 366.34C-209.52 382.54 -208.37 387.54 -205.77 401.91C-211.76 406.26 -216.31 407.37 -223.47 407.37" id="aTkC6cBEk"></path><path d="M-223.47 404.62C-229.33 404.62 -233.06 403.7 -237.97 400.14C-235.84 388.37 -234.9 384.27 -223.47 371C-212.04 384.27 -211.1 388.37 -208.97 400.14C-213.88 403.7 -217.6 404.62 -223.47 404.62" id="b2qCmfgrl"></path><path d="M-223.47 404.62C-229.33 404.62 -233.06 403.7 -237.97 400.14C-235.84 388.37 -234.9 384.27 -223.47 371C-212.04 384.27 -211.1 388.37 -208.97 400.14C-213.88 403.7 -217.6 404.62 -223.47 404.62" id="aGBdSaDvM"></path><path d="M-218.36 429.08C-218.36 432.74 -220.65 435.7 -223.47 435.7C-226.29 435.7 -228.58 432.74 -228.58 429.08C-228.58 425.42 -226.29 422.46 -223.47 422.46C-220.65 422.46 -218.36 425.42 -218.36 429.08" id="a2xCOat6y0"></path><path d="M-218.36 429.08C-218.36 432.74 -220.65 435.7 -223.47 435.7C-226.29 435.7 -228.58 432.74 -228.58 429.08C-228.58 425.42 -226.29 422.46 -223.47 422.46C-220.65 422.46 -218.36 425.42 -218.36 429.08" id="h1PdHJOhF2"></path><path d="M-219.58 429.08C-219.58 431.87 -221.32 434.12 -223.47 434.12C-225.62 434.12 -227.36 431.87 -227.36 429.08C-227.36 426.29 -225.62 424.04 -223.47 424.04C-221.32 424.04 -219.58 426.29 -219.58 429.08" id="byeDtFzGn"></path><path d="M-219.58 429.08C-219.58 431.87 -221.32 434.12 -223.47 434.12C-225.62 434.12 -227.36 431.87 -227.36 429.08C-227.36 426.29 -225.62 424.04 -223.47 424.04C-221.32 424.04 -219.58 426.29 -219.58 429.08" id="a16Q0TQtKK"></path><path d="M310.09 477.91C295.04 479.89 254.19 472.11 207.9 487.11C237.85 428.36 310.09 328.48 310.09 328.48C313.15 324.66 328.44 305.61 355.96 271.31C362.31 296.83 366.26 312.78 367.84 319.16C350.64 364.21 324.23 445.81 310.09 477.91Z" id="e4UuA2PQDf"></path><path d="M310.09 477.91C295.04 479.89 254.19 472.11 207.9 487.11C237.85 428.36 310.09 328.48 310.09 328.48C313.15 324.66 328.44 305.61 355.96 271.31C362.31 296.83 366.26 312.78 367.84 319.16C350.64 364.21 324.23 445.81 310.09 477.91Z" id="g3SbxGMCZ"></path><path d="M128.94 444.03C142.56 471.17 176.3 504.56 217.1 497.82C274.39 438.85 320.56 378.01 343.82 306.02C339.97 296.52 328.39 268.04 324.53 258.54C300.47 300.73 215.16 397.88 128.94 444.03Z" id="b87uaqFiMq"></path><path d="M128.94 444.03C142.56 471.17 176.3 504.56 217.1 497.82C274.39 438.85 320.56 378.01 343.82 306.02C339.97 296.52 328.39 268.04 324.53 258.54C300.47 300.73 215.16 397.88 128.94 444.03Z" id="bGjXzagSd"></path><path d="M251.7 605.18C247.13 616.15 251.7 636.57 270.19 632.33C288.68 628.1 276.51 606.93 276.51 600.2C276.51 590.49 281.31 579.99 286.71 570.51C285.63 569.51 280.17 564.51 270.34 555.47C269.08 556.97 259.04 568.93 257.79 570.43C256.96 579 256.46 584.36 256.25 586.49C256.25 589.48 256.25 594.22 251.7 605.18Z" id="afDhU8oiT"></path><path d="M251.7 605.18C247.13 616.15 251.7 636.57 270.19 632.33C288.68 628.1 276.51 606.93 276.51 600.2C276.51 590.49 281.31 579.99 286.71 570.51C285.63 569.51 280.17 564.51 270.34 555.47C269.08 556.97 259.04 568.93 257.79 570.43C256.96 579 256.46 584.36 256.25 586.49C256.25 589.48 256.25 594.22 251.7 605.18Z" id="elIoDrUSJ"></path><path d="M256.65 603.14C256.65 609.88 268.81 631.06 250.32 635.28C231.84 639.52 227.27 619.09 231.84 608.12C234.53 601.65 235.62 597.35 236.08 594.3C226.64 591.44 227.55 580.96 230.19 572.26C230.19 572.26 237.53 565.78 244.48 564.31C248.87 566.2 261.97 571.86 266.34 573.75C260.92 583.22 256.65 593.42 256.65 603.14Z" id="c50jaNFWg"></path><path d="M256.65 603.14C256.65 609.88 268.81 631.06 250.32 635.28C231.84 639.52 227.27 619.09 231.84 608.12C234.53 601.65 235.62 597.35 236.08 594.3C226.64 591.44 227.55 580.96 230.19 572.26C230.19 572.26 237.53 565.78 244.48 564.31C248.87 566.2 261.97 571.86 266.34 573.75C260.92 583.22 256.65 593.42 256.65 603.14Z" id="a5yJElemVY"></path><path d="M346.65 502.44C344.78 511.66 337.71 519.38 328.56 520.09C318.11 541.96 302.72 558.43 286.71 570.51C279.04 572.59 276.9 571.56 270.48 569.04C269.1 570.75 267.72 572.32 266.34 573.75C254.07 577.24 244.48 570.26 244.48 564.31C240.49 536.77 247.52 515.29 259.94 509.25C253.9 493.58 253.79 466.69 260.63 455.66C253.8 436.55 264.25 420.95 274.09 420.95C294.77 421.57 356.8 423.41 377.49 424.03C379.69 450.67 372.45 483.55 346.65 502.44Z" id="feF6Gcxbk"></path><path d="M346.65 502.44C344.78 511.66 337.71 519.38 328.56 520.09C318.11 541.96 302.72 558.43 286.71 570.51C279.04 572.59 276.9 571.56 270.48 569.04C269.1 570.75 267.72 572.32 266.34 573.75C254.07 577.24 244.48 570.26 244.48 564.31C240.49 536.77 247.52 515.29 259.94 509.25C253.9 493.58 253.79 466.69 260.63 455.66C253.8 436.55 264.25 420.95 274.09 420.95C294.77 421.57 356.8 423.41 377.49 424.03C379.69 450.67 372.45 483.55 346.65 502.44Z" id="b9HamHsIq"></path><path d="M297.58 523.45C286.71 538.54 277.19 558.98 266.34 573.75C278.89 560.79 291.64 535.22 297.58 523.45" id="a1c6pSN9BT"></path><path d="M297.58 523.45C286.71 538.54 277.19 558.98 266.34 573.75C278.89 560.79 291.64 535.22 297.58 523.45" id="ab6S1voO6"></path><path d="M324.53 519.97C335.57 521.55 344.49 512.97 346.64 502.44C342.98 511.21 333.18 519.1 324.53 519.97" id="be0dbgROh"></path><path d="M324.53 519.97C335.57 521.55 344.49 512.97 346.64 502.44C342.98 511.21 333.18 519.1 324.53 519.97" id="f3YBlCLMuT"></path><path d="M261.59 512.97C253.97 498.26 253.22 467.61 260.63 455.66C256.27 475.76 256.61 494.86 261.59 512.97" id="bcbE9WRL8"></path><path d="M261.59 512.97C253.97 498.26 253.22 467.61 260.63 455.66C256.27 475.76 256.61 494.86 261.59 512.97" id="a1ToCgk4u"></path><path d="M323.53 474.75C321.26 490.59 312.07 504.65 306.85 511.24C306.38 522.2 296 525.38 290.85 523.47C297.58 523.46 304.3 521.14 304.77 510.2C309.99 500.02 318.85 488.64 323.53 474.75" id="buGI5kLQX"></path><path d="M323.53 474.75C321.26 490.59 312.07 504.65 306.85 511.24C306.38 522.2 296 525.38 290.85 523.47C297.58 523.46 304.3 521.14 304.77 510.2C309.99 500.02 318.85 488.64 323.53 474.75" id="eiymIXdE8"></path><path d="M336.82 456.36C334.22 472.72 325.87 476.87 317.16 473.98C324.53 474.84 332.7 470.61 336.82 456.36" id="b7e3DZ2qE"></path><path d="M336.82 456.36C334.22 472.72 325.87 476.87 317.16 473.98C324.53 474.84 332.7 470.61 336.82 456.36" id="hbzTHpzAF"></path><path d="M542.62 53.95C509.31 51.16 490.8 49.62 487.1 49.31C474.09 68.05 464.42 96.5 463.79 130.52C452.34 149.46 435.75 160.75 427.77 179.84C420.61 196.95 422.06 207.59 425.29 214.2C421.42 215.94 419 217.23 414.88 218.21C375.69 229.39 407.85 275.84 363.12 302.07C352.5 293.81 373.28 290.12 365.86 280.67C348.96 259.16 309.08 254.41 311.54 230.42C311.47 230.42 311.1 230.4 310.44 230.38C277.14 273.47 258.63 297.42 254.93 302.22C258.36 341.07 277.65 361.42 281.16 376.95C281.08 380.55 280.31 409.38 280.22 412.98C309.89 436.89 373.94 426.24 387.94 406.62C397.22 394.66 395.5 393.98 414.48 359.2C448.38 345.91 445.48 298.2 459.11 274.51C469.95 255.65 479.69 252.6 505.35 212.22C521.5 186.83 513.92 161.93 517.83 142.5C542.77 124 549.06 89.78 542.62 53.95" id="b4eRGuAuU"></path><path d="M542.62 53.95C509.31 51.16 490.8 49.62 487.1 49.31C474.09 68.05 464.42 96.5 463.79 130.52C452.34 149.46 435.75 160.75 427.77 179.84C420.61 196.95 422.06 207.59 425.29 214.2C421.42 215.94 419 217.23 414.88 218.21C375.69 229.39 407.85 275.84 363.12 302.07C352.5 293.81 373.28 290.12 365.86 280.67C348.96 259.16 309.08 254.41 311.54 230.42C311.47 230.42 311.1 230.4 310.44 230.38C277.14 273.47 258.63 297.42 254.93 302.22C258.36 341.07 277.65 361.42 281.16 376.95C281.08 380.55 280.31 409.38 280.22 412.98C309.89 436.89 373.94 426.24 387.94 406.62C397.22 394.66 395.5 393.98 414.48 359.2C448.38 345.91 445.48 298.2 459.11 274.51C469.95 255.65 479.69 252.6 505.35 212.22C521.5 186.83 513.92 161.93 517.83 142.5C542.77 124 549.06 89.78 542.62 53.95" id="a4tVZcVfFQ"></path><path d="M508.38 148.29C541.14 131.92 549.81 93.95 542.62 53.95C546.13 98.8 534.58 128.61 508.38 148.29" id="b2AUKuQbpK"></path><path d="M508.38 148.29C541.14 131.92 549.81 93.95 542.62 53.95C546.13 98.8 534.58 128.61 508.38 148.29" id="ivPlj4Xqu"></path><path d="M464.28 148.29C461.25 106.43 471.89 71.22 487.1 49.31C475.43 78.5 466.88 107.27 464.28 148.29" id="a3qeDytdk7"></path><path d="M464.28 148.29C461.25 106.43 471.89 71.22 487.1 49.31C475.43 78.5 466.88 107.27 464.28 148.29" id="e1hnFa1ku6"></path><path d="M427.77 218.21C423.22 212.22 418.95 200.96 427.77 179.84C435.75 160.75 452.3 149.46 463.76 130.52C450.87 153.98 439.08 162.43 431.1 181.51C422.26 202.64 424.47 209.33 427.77 218.21" id="bN51SIl8K"></path><path d="M427.77 218.21C423.22 212.22 418.95 200.96 427.77 179.84C435.75 160.75 452.3 149.46 463.76 130.52C450.87 153.98 439.08 162.43 431.1 181.51C422.26 202.64 424.47 209.33 427.77 218.21" id="b1ktt3Q1UQ"></path><path d="M393.93 362.71C449.84 362.71 443.19 302.2 459.11 274.51C437.76 306.69 445.4 354.5 393.93 362.71" id="ay4dSU3iO"></path><path d="M393.93 362.71C449.84 362.71 443.19 302.2 459.11 274.51C437.76 306.69 445.4 354.5 393.93 362.71" id="cpLgdPbAF"></path><path d="M358.56 349.88C381 370.2 380.62 389.05 381 398.35C368.07 408.66 332.2 416.95 306.65 398.35C317.16 376.24 338.87 359.8 358.56 349.88" id="b5JAMPVoSf"></path><path d="M358.56 349.88C381 370.2 380.62 389.05 381 398.35C368.07 408.66 332.2 416.95 306.65 398.35C317.16 376.24 338.87 359.8 358.56 349.88" id="a48q1TRW9"></path><path d="M357.67 360.5C375.69 376.19 375.38 390.75 375.69 397.93C365.29 405.89 336.5 412.3 315.97 397.93C324.42 380.86 341.85 368.18 357.67 360.5" id="c3XMBLh5WS"></path><path d="M357.67 360.5C375.69 376.19 375.38 390.75 375.69 397.93C365.29 405.89 336.5 412.3 315.97 397.93C324.42 380.86 341.85 368.18 357.67 360.5" id="gT27fBv6p"></path><path d="M284.55 403.54C314.22 427.46 368.95 420.1 387.94 406.62C387.94 411.99 383.39 420.59 377.49 424.03C358.49 437.51 303.74 444.87 274.09 420.95C271.42 411.22 275.56 405.41 284.55 403.54" id="f35EipLWV"></path><path d="M284.55 403.54C314.22 427.46 368.95 420.1 387.94 406.62C387.94 411.99 383.39 420.59 377.49 424.03C358.49 437.51 303.74 444.87 274.09 420.95C271.42 411.22 275.56 405.41 284.55 403.54" id="bdoWEsfUw"></path><path d="M281.16 376.95C285.86 382.71 292.89 386.41 305.75 383.92C308.14 397.16 306.35 419.24 293.23 423.23C274.97 420.22 272.23 418.61 270.15 405C264.63 403.85 258.39 405 258.39 405C244.48 398 244.48 376.95 244.48 376.95C246.46 376.68 262.27 374.64 264.25 374.38C273.75 374.38 276.48 371.18 281.16 376.95" id="c2xnsXXY8"></path><path d="M281.16 376.95C285.86 382.71 292.89 386.41 305.75 383.92C308.14 397.16 306.35 419.24 293.23 423.23C274.97 420.22 272.23 418.61 270.15 405C264.63 403.85 258.39 405 258.39 405C244.48 398 244.48 376.95 244.48 376.95C246.46 376.68 262.27 374.64 264.25 374.38C273.75 374.38 276.48 371.18 281.16 376.95" id="a4pHXiRG1"></path><path d="M248.14 251.24C230.56 268.7 229.59 279.78 224.42 289.28C208.77 295.16 165.95 324.13 164.79 344.06C163.67 363.98 198.86 400.84 258.39 405C255.13 395.28 257.47 380.4 264.25 374.38C256.56 368.3 254.36 357.08 243.92 349.7C252.65 348.14 264.3 345.11 270.15 325.56C277.29 340.5 285.55 365.68 311.67 365.61C316.52 358.01 340.76 319.99 384.42 251.56C358.86 240.42 342.9 233.45 336.51 230.67C318.13 233.34 281.65 217.96 248.14 251.24Z" id="aySBtPQea"></path><path d="M248.14 251.24C230.56 268.7 229.59 279.78 224.42 289.28C208.77 295.16 165.95 324.13 164.79 344.06C163.67 363.98 198.86 400.84 258.39 405C255.13 395.28 257.47 380.4 264.25 374.38C256.56 368.3 254.36 357.08 243.92 349.7C252.65 348.14 264.3 345.11 270.15 325.56C277.29 340.5 285.55 365.68 311.67 365.61C316.52 358.01 340.76 319.99 384.42 251.56C358.86 240.42 342.9 233.45 336.51 230.67C318.13 233.34 281.65 217.96 248.14 251.24Z" id="b2NqsgguCj"></path><path d="M217.1 298.43C230.78 286.48 224.69 274.52 248.14 251.24C281.65 217.96 318.13 233.34 336.51 230.67C313.79 235.52 285.25 219.77 251.73 253.05C228.29 276.32 234.21 284.75 217.1 298.43" id="ccGf092q"></path><path d="M217.1 298.43C230.78 286.48 224.69 274.52 248.14 251.24C281.65 217.96 318.13 233.34 336.51 230.67C313.79 235.52 285.25 219.77 251.73 253.05C228.29 276.32 234.21 284.75 217.1 298.43" id="a2g01nE4Wl"></path><path d="M311.67 365.61C278.47 365.69 274.14 325 264.25 316.37C276.8 326.34 283.45 361.25 311.67 365.61" id="f26GL5O0tu"></path><path d="M311.67 365.61C278.47 365.69 274.14 325 264.25 316.37C276.8 326.34 283.45 361.25 311.67 365.61" id="eN8Eh9qzz"></path><path d="M211.85 342.55C253.72 341.23 251.83 364.54 264.25 374.39C250.65 367.22 246.86 344.69 211.85 342.55" id="b198qQtmu"></path><path d="M211.85 342.55C253.72 341.23 251.83 364.54 264.25 374.39C250.65 367.22 246.86 344.69 211.85 342.55" id="d1s7MvPXnV"></path><path d="M354.35 430.07C352.18 438.99 344.71 445.17 337.68 443.86C330.65 442.54 326.74 434.25 328.91 425.32C331.09 416.39 338.56 410.21 345.59 411.53C352.62 412.83 356.54 421.14 354.35 430.07" id="aGKHrRKw3"></path><path d="M354.35 430.07C352.18 438.99 344.71 445.17 337.68 443.86C330.65 442.54 326.74 434.25 328.91 425.32C331.09 416.39 338.56 410.21 345.59 411.53C352.62 412.83 356.54 421.14 354.35 430.07" id="kBRHwmVxB"></path><path d="M350.64 429.37C349.09 435.68 343.81 440.05 338.83 439.12C333.86 438.19 331.09 432.33 332.64 426.02C334.18 419.69 339.47 415.33 344.44 416.25C349.4 417.18 352.18 423.06 350.64 429.37" id="h6hbKzY1f"></path><path d="M350.64 429.37C349.09 435.68 343.81 440.05 338.83 439.12C333.86 438.19 331.09 432.33 332.64 426.02C334.18 419.69 339.47 415.33 344.44 416.25C349.4 417.18 352.18 423.06 350.64 429.37" id="a4LBRFLa6R"></path><path d="M473.37 24.59C465.5 33.25 479.67 74.6 499.04 75.72C518.39 76.85 546 73.84 553.5 61.44C561 49.03 558.35 29.47 549.77 18.95C541.21 8.42 495.95 -0.24 473.37 24.59" id="i2n9hWzkAb"></path><path d="M473.37 24.59C465.5 33.25 479.67 74.6 499.04 75.72C518.39 76.85 546 73.84 553.5 61.44C561 49.03 558.35 29.47 549.77 18.95C541.21 8.42 495.95 -0.24 473.37 24.59" id="bSsMkE6q"></path><path d="M361.59 323.64C400.24 297.39 422.62 259.3 410.72 219C410.72 219 410.72 218.98 410.72 218.98C406.87 219.57 401.66 220.01 393.93 220.37C390.09 221.06 370.96 224.48 336.51 230.67C336.34 230.7 335.47 230.85 333.91 231.13C333 231.16 332.5 231.17 332.4 231.17C324.73 230.89 320.48 230.74 319.62 230.71C304.23 259.25 331.99 297.43 361.59 323.64" id="c3t1RBjp2T"></path><path d="M361.59 323.64C400.24 297.39 422.62 259.3 410.72 219C410.72 219 410.72 218.98 410.72 218.98C406.87 219.57 401.66 220.01 393.93 220.37C390.09 221.06 370.96 224.48 336.51 230.67C336.34 230.7 335.47 230.85 333.91 231.13C333 231.16 332.5 231.17 332.4 231.17C324.73 230.89 320.48 230.74 319.62 230.71C304.23 259.25 331.99 297.43 361.59 323.64" id="aicburylm"></path><path d="M361.31 332.6C406.03 306.35 424.34 256.08 414.88 218.21C413.68 218.49 412.3 218.76 410.72 218.98C410.72 218.98 410.72 219 410.72 219C413.5 263.9 399.95 286.76 361.31 313C331.7 286.8 315.65 265.01 319.62 230.71C318.81 230.68 312.35 230.45 311.54 230.42C304.6 263.24 322.81 305.55 361.31 332.6" id="a2qnCix5AD"></path><path d="M361.31 332.6C406.03 306.35 424.34 256.08 414.88 218.21C413.68 218.49 412.3 218.76 410.72 218.98C410.72 218.98 410.72 219 410.72 219C413.5 263.9 399.95 286.76 361.31 313C331.7 286.8 315.65 265.01 319.62 230.71C318.81 230.68 312.35 230.45 311.54 230.42C304.6 263.24 322.81 305.55 361.31 332.6" id="b19geyvOK2"></path><path d="M363.12 274.51C341.83 274.51 326.62 238.64 321.29 211.39C315.97 184.17 330.42 166.22 363.12 166.22C395.83 166.22 410.28 184.17 404.95 211.39C399.63 238.64 384.42 274.51 363.12 274.51" id="auzld6G0P"></path><path d="M363.12 274.51C341.83 274.51 326.62 238.64 321.29 211.39C315.97 184.17 330.42 166.22 363.12 166.22C395.83 166.22 410.28 184.17 404.95 211.39C399.63 238.64 384.42 274.51 363.12 274.51" id="bzHjJqCMd"></path><path d="M329.44 239.03C327.76 221.03 323.19 196.45 338.02 186.16C347.52 194.8 370.36 198.11 377.96 198.11C385.55 198.11 394.65 193.52 397.41 192.13C401.16 198.11 403.11 225.75 396.81 239.03C409.51 213.72 410.28 197.11 409.13 186.16C414.08 184.17 428.15 169.21 414.08 161.92C400.01 154.59 388.98 163.23 368.07 161.92C347.15 160.57 326.75 162.9 320.22 177.52C313.69 192.13 311.73 217.85 329.44 239.03" id="bRhw0HDPl"></path><path d="M329.44 239.03C327.76 221.03 323.19 196.45 338.02 186.16C347.52 194.8 370.36 198.11 377.96 198.11C385.55 198.11 394.65 193.52 397.41 192.13C401.16 198.11 403.11 225.75 396.81 239.03C409.51 213.72 410.28 197.11 409.13 186.16C414.08 184.17 428.15 169.21 414.08 161.92C400.01 154.59 388.98 163.23 368.07 161.92C347.15 160.57 326.75 162.9 320.22 177.52C313.69 192.13 311.73 217.85 329.44 239.03" id="a68pg1dog1"></path></defs><g><g><use xlink:href="#hVsbaqRX" opacity="1" fill="#ffffff" fill-opacity="1"></use><g><use xlink:href="#hVsbaqRX" opacity="1" fill-opacity="0" stroke="#000000" stroke-width="1" stroke-opacity="0"></use></g></g><g><use xlink:href="#d120Mzqdqr" opacity="1" fill="#000000" fill-opacity="0"></use><g><use xlink:href="#d120Mzqdqr" opacity="1" fill-opacity="0" stroke="#000000" stroke-width="1" stroke-opacity="0"></use></g></g><g><use xlink:href="#a5XCy1IZIG" opacity="1" fill="#ffffff" fill-opacity="1"></use><g><use xlink:href="#a5XCy1IZIG" opacity="1" fill-opacity="0" stroke="#000000" stroke-width="1" stroke-opacity="0"></use></g></g><g><use xlink:href="#a2fuCl1nGs" opacity="1" fill="#000000" fill-opacity="0"></use><g><use xlink:href="#a2fuCl1nGs" opacity="1" fill-opacity="0" stroke="#000000" stroke-width="1" stroke-opacity="0"></use></g></g><g><use xlink:href="#f9iYRsUAsS" opacity="1" fill="#ffffff" fill-opacity="1"></use><g><use xlink:href="#f9iYRsUAsS" opacity="1" fill-opacity="0" stroke="#000000" stroke-width="1" stroke-opacity="0"></use></g></g><g><use xlink:href="#a15FWNTtxJ" opacity="1" fill="#000000" fill-opacity="0"></use><g><use xlink:href="#a15FWNTtxJ" opacity="1" fill-opacity="0" stroke="#000000" stroke-width="1" stroke-opacity="0"></use></g></g><g><use xlink:href="#lxCd5CIYF" opacity="1" fill="#ffffff" fill-opacity="1"></use><g><use xlink:href="#lxCd5CIYF" opacity="1" fill-opacity="0" stroke="#000000" stroke-width="1" stroke-opacity="0"></use></g></g><g><use xlink:href="#g1hA5oCCaw" opacity="1" fill="#000000" fill-opacity="0"></use><g><use xlink:href="#g1hA5oCCaw" opacity="1" fill-opacity="0" stroke="#000000" stroke-width="1" stroke-opacity="0"></use></g></g><g><use xlink:href="#b54c540d0T" opacity="1" fill="#ffffff" fill-opacity="1"></use><g><use xlink:href="#b54c540d0T" opacity="1" fill-opacity="0" stroke="#000000" stroke-width="1" stroke-opacity="0"></use></g></g><g><use xlink:href="#f9UZxunDr" opacity="1" fill="#000000" fill-opacity="0"></use><g><use xlink:href="#f9UZxunDr" opacity="1" fill-opacity="0" stroke="#000000" stroke-width="1" stroke-opacity="0"></use></g></g><g><use xlink:href="#a15SwO9V8N" opacity="1" fill="#ffffff" fill-opacity="1"></use><g><use xlink:href="#a15SwO9V8N" opacity="1" fill-opacity="0" stroke="#000000" stroke-width="1" stroke-opacity="0"></use></g></g><g><use xlink:href="#k2Q2W7Qpv" opacity="1" fill="#000000" fill-opacity="0"></use><g><use xlink:href="#k2Q2W7Qpv" opacity="1" fill-opacity="0" stroke="#000000" stroke-width="1" stroke-opacity="0"></use></g></g><g><use xlink:href="#fjfGTej9" opacity="1" fill="#f9deb7" fill-opacity="1"></use><g><use xlink:href="#fjfGTej9" opacity="1" fill-opacity="0" stroke="#000000" stroke-width="1" stroke-opacity="0"></use></g></g><g><use xlink:href="#aoPIoZ7dp" opacity="1" fill="#000000" fill-opacity="0"></use><g><use xlink:href="#aoPIoZ7dp" opacity="1" fill-opacity="0" stroke="#000000" stroke-width="1" stroke-opacity="0"></use></g></g><g><use xlink:href="#fJ3Oji8b" opacity="1" fill="#f9deb7" fill-opacity="1"></use><g><use xlink:href="#fJ3Oji8b" opacity="1" fill-opacity="0" stroke="#000000" stroke-width="1" stroke-opacity="0"></use></g></g><g><use xlink:href="#biUtdd6HD" opacity="1" fill="#000000" fill-opacity="0"></use><g><use xlink:href="#biUtdd6HD" opacity="1" fill-opacity="0" stroke="#000000" stroke-width="1" stroke-opacity="0"></use></g></g><g><use xlink:href="#a8lincxA4" opacity="1" fill="#f06966" fill-opacity="1"></use><g><use xlink:href="#a8lincxA4" opacity="1" fill-opacity="0" stroke="#000000" stroke-width="1" stroke-opacity="0"></use></g></g><g><use xlink:href="#b6Xpg1R0F" opacity="1" fill="#000000" fill-opacity="0"></use><g><use xlink:href="#b6Xpg1R0F" opacity="1" fill-opacity="0" stroke="#000000" stroke-width="1" stroke-opacity="0"></use></g></g><g><use xlink:href="#a170nH34wu" opacity="1" fill="#dee2d1" fill-opacity="1"></use><g><use xlink:href="#a170nH34wu" opacity="1" fill-opacity="0" stroke="#000000" stroke-width="1" stroke-opacity="0"></use></g></g><g><use xlink:href="#a5HkN4E4CQ" opacity="1" fill="#000000" fill-opacity="0"></use><g><use xlink:href="#a5HkN4E4CQ" opacity="1" fill-opacity="0" stroke="#000000" stroke-width="1" stroke-opacity="0"></use></g></g><g><use xlink:href="#dNybYPWZ" opacity="1" fill="#dee2d1" fill-opacity="1"></use><g><use xlink:href="#dNybYPWZ" opacity="1" fill-opacity="0" stroke="#000000" stroke-width="1" stroke-opacity="0"></use></g></g><g><use xlink:href="#a1kYVO2s3K" opacity="1" fill="#000000" fill-opacity="0"></use><g><use xlink:href="#a1kYVO2s3K" opacity="1" fill-opacity="0" stroke="#000000" stroke-width="1" stroke-opacity="0"></use></g></g><g><use xlink:href="#a24De9cgpg" opacity="1" fill="#dee2d1" fill-opacity="1"></use><g><use xlink:href="#a24De9cgpg" opacity="1" fill-opacity="0" stroke="#000000" stroke-width="1" stroke-opacity="0"></use></g></g><g><use xlink:href="#b7Q55LOxF" opacity="1" fill="#000000" fill-opacity="0"></use><g><use xlink:href="#b7Q55LOxF" opacity="1" fill-opacity="0" stroke="#000000" stroke-width="1" stroke-opacity="0"></use></g></g><g><use xlink:href="#e3Rbnn9sQ" opacity="1" fill="#dee2d1" fill-opacity="1"></use><g><use xlink:href="#e3Rbnn9sQ" opacity="1" fill-opacity="0" stroke="#000000" stroke-width="1" stroke-opacity="0"></use></g></g><g><use xlink:href="#g1U52myop" opacity="1" fill="#000000" fill-opacity="0"></use><g><use xlink:href="#g1U52myop" opacity="1" fill-opacity="0" stroke="#000000" stroke-width="1" stroke-opacity="0"></use></g></g><g><use xlink:href="#aCySaQZKk" opacity="1" fill="#313238" fill-opacity="1"></use><g><use xlink:href="#aCySaQZKk" opacity="1" fill-opacity="0" stroke="#000000" stroke-width="1" stroke-opacity="0"></use></g></g><g><use xlink:href="#a5u26LadBM" opacity="1" fill="#000000" fill-opacity="0"></use><g><use xlink:href="#a5u26LadBM" opacity="1" fill-opacity="0" stroke="#000000" stroke-width="1" stroke-opacity="0"></use></g></g><g><use xlink:href="#e777cRwAim" opacity="1" fill="#313238" fill-opacity="1"></use><g><use xlink:href="#e777cRwAim" opacity="1" fill-opacity="0" stroke="#000000" stroke-width="1" stroke-opacity="0"></use></g></g><g><use xlink:href="#b1mAT70nWN" opacity="1" fill="#000000" fill-opacity="0"></use><g><use xlink:href="#b1mAT70nWN" opacity="1" fill-opacity="0" stroke="#000000" stroke-width="1" stroke-opacity="0"></use></g></g><g><use xlink:href="#bkrIyBHZ1" opacity="1" fill="#f9deb7" fill-opacity="1"></use><g><use xlink:href="#bkrIyBHZ1" opacity="1" fill-opacity="0" stroke="#000000" stroke-width="1" stroke-opacity="0"></use></g></g><g><use xlink:href="#btsAfoqj5" opacity="1" fill="#000000" fill-opacity="0"></use><g><use xlink:href="#btsAfoqj5" opacity="1" fill-opacity="0" stroke="#000000" stroke-width="1" stroke-opacity="0"></use></g></g><g><use xlink:href="#dbJryBZi" opacity="1" fill="#dee2d1" fill-opacity="1"></use><g><use xlink:href="#dbJryBZi" opacity="1" fill-opacity="0" stroke="#000000" stroke-width="1" stroke-opacity="0"></use></g></g><g><use xlink:href="#fbZEIWdMc" opacity="1" fill="#000000" fill-opacity="0"></use><g><use xlink:href="#fbZEIWdMc" opacity="1" fill-opacity="0" stroke="#000000" stroke-width="1" stroke-opacity="0"></use></g></g><g><use xlink:href="#a3ery0m4h" opacity="1" fill="#eacfac" fill-opacity="1"></use><g><use xlink:href="#a3ery0m4h" opacity="1" fill-opacity="0" stroke="#000000" stroke-width="1" stroke-opacity="0"></use></g></g><g><use xlink:href="#crQ7FByB7" opacity="1" fill="#000000" fill-opacity="0"></use><g><use xlink:href="#crQ7FByB7" opacity="1" fill-opacity="0" stroke="#000000" stroke-width="1" stroke-opacity="0"></use></g></g><g><use xlink:href="#b1f44igEZ3" opacity="1" fill="#4a2c26" fill-opacity="1"></use><g><use xlink:href="#b1f44igEZ3" opacity="1" fill-opacity="0" stroke="#000000" stroke-width="1" stroke-opacity="0"></use></g></g><g><use xlink:href="#b1bwVo5GoD" opacity="1" fill="#000000" fill-opacity="0"></use><g><use xlink:href="#b1bwVo5GoD" opacity="1" fill-opacity="0" stroke="#000000" stroke-width="1" stroke-opacity="0"></use></g></g><g><use xlink:href="#bAQ7Ohait" opacity="1" fill="#25262a" fill-opacity="1"></use><g><use xlink:href="#bAQ7Ohait" opacity="1" fill-opacity="0" stroke="#000000" stroke-width="1" stroke-opacity="0"></use></g></g><g><use xlink:href="#gVjePzSLs" opacity="1" fill="#000000" fill-opacity="0"></use><g><use xlink:href="#gVjePzSLs" opacity="1" fill-opacity="0" stroke="#000000" stroke-width="1" stroke-opacity="0"></use></g></g><g><use xlink:href="#c1jvOGZZmY" opacity="1" fill="#25262a" fill-opacity="1"></use><g><use xlink:href="#c1jvOGZZmY" opacity="1" fill-opacity="0" stroke="#000000" stroke-width="1" stroke-opacity="0"></use></g></g><g><use xlink:href="#a5ngKWIdK" opacity="1" fill="#000000" fill-opacity="0"></use><g><use xlink:href="#a5ngKWIdK" opacity="1" fill-opacity="0" stroke="#000000" stroke-width="1" stroke-opacity="0"></use></g></g><g><use xlink:href="#d8AIpRP1J" opacity="1" fill="#25262a" fill-opacity="1"></use><g><use xlink:href="#d8AIpRP1J" opacity="1" fill-opacity="0" stroke="#000000" stroke-width="1" stroke-opacity="0"></use></g></g><g><use xlink:href="#b2wVHTWHU" opacity="1" fill="#000000" fill-opacity="0"></use><g><use xlink:href="#b2wVHTWHU" opacity="1" fill-opacity="0" stroke="#000000" stroke-width="1" stroke-opacity="0"></use></g></g><g><use xlink:href="#cgtUZwyCS" opacity="1" fill="#25262a" fill-opacity="1"></use><g><use xlink:href="#cgtUZwyCS" opacity="1" fill-opacity="0" stroke="#000000" stroke-width="1" stroke-opacity="0"></use></g></g><g><use xlink:href="#b4QU0Ixh3e" opacity="1" fill="#000000" fill-opacity="0"></use><g><use xlink:href="#b4QU0Ixh3e" opacity="1" fill-opacity="0" stroke="#000000" stroke-width="1" stroke-opacity="0"></use></g></g><g><use xlink:href="#p6vo3YCiB3" opacity="1" fill="#25262a" fill-opacity="1"></use><g><use xlink:href="#p6vo3YCiB3" opacity="1" fill-opacity="0" stroke="#000000" stroke-width="1" stroke-opacity="0"></use></g></g><g><use xlink:href="#bMk9n9Bei" opacity="1" fill="#000000" fill-opacity="0"></use><g><use xlink:href="#bMk9n9Bei" opacity="1" fill-opacity="0" stroke="#000000" stroke-width="1" stroke-opacity="0"></use></g></g><g><use xlink:href="#d1FwceaTQ" opacity="1" fill="#25262a" fill-opacity="1"></use><g><use xlink:href="#d1FwceaTQ" opacity="1" fill-opacity="0" stroke="#000000" stroke-width="1" stroke-opacity="0"></use></g></g><g><use xlink:href="#i29SGV4OtL" opacity="1" fill="#000000" fill-opacity="0"></use><g><use xlink:href="#i29SGV4OtL" opacity="1" fill-opacity="0" stroke="#000000" stroke-width="1" stroke-opacity="0"></use></g></g><g><use xlink:href="#a299CDVBUs" opacity="1" fill="#dee2d1" fill-opacity="1"></use><g><use xlink:href="#a299CDVBUs" opacity="1" fill-opacity="0" stroke="#000000" stroke-width="1" stroke-opacity="0"></use></g></g><g><use xlink:href="#a2guU97C31" opacity="1" fill="#000000" fill-opacity="0"></use><g><use xlink:href="#a2guU97C31" opacity="1" fill-opacity="0" stroke="#000000" stroke-width="1" stroke-opacity="0"></use></g></g><g><use xlink:href="#j2YLrn9QZU" opacity="1" fill="#25262a" fill-opacity="1"></use><g><use xlink:href="#j2YLrn9QZU" opacity="1" fill-opacity="0" stroke="#000000" stroke-width="1" stroke-opacity="0"></use></g></g><g><use xlink:href="#dGbVBJZsO" opacity="1" fill="#000000" fill-opacity="0"></use><g><use xlink:href="#dGbVBJZsO" opacity="1" fill-opacity="0" stroke="#000000" stroke-width="1" stroke-opacity="0"></use></g></g><g><use xlink:href="#b1rJGrdnG3" opacity="1" fill="#25262a" fill-opacity="1"></use><g><use xlink:href="#b1rJGrdnG3" opacity="1" fill-opacity="0" stroke="#000000" stroke-width="1" stroke-opacity="0"></use></g></g><g><use xlink:href="#bdZmcFNKo" opacity="1" fill="#000000" fill-opacity="0"></use><g><use xlink:href="#bdZmcFNKo" opacity="1" fill-opacity="0" stroke="#000000" stroke-width="1" stroke-opacity="0"></use></g></g><g><use xlink:href="#bY8TccRxb" opacity="1" fill="#25262a" fill-opacity="1"></use><g><use xlink:href="#bY8TccRxb" opacity="1" fill-opacity="0" stroke="#000000" stroke-width="1" stroke-opacity="0"></use></g></g><g><use xlink:href="#eb3wnguXQ" opacity="1" fill="#000000" fill-opacity="0"></use><g><use xlink:href="#eb3wnguXQ" opacity="1" fill-opacity="0" stroke="#000000" stroke-width="1" stroke-opacity="0"></use></g></g><g><use xlink:href="#b17wEoxrqT" opacity="1" fill="#25262a" fill-opacity="1"></use><g><use xlink:href="#b17wEoxrqT" opacity="1" fill-opacity="0" stroke="#000000" stroke-width="1" stroke-opacity="0"></use></g></g><g><use xlink:href="#i1XgeKBSRB" opacity="1" fill="#000000" fill-opacity="0"></use><g><use xlink:href="#i1XgeKBSRB" opacity="1" fill-opacity="0" stroke="#000000" stroke-width="1" stroke-opacity="0"></use></g></g><g><use xlink:href="#do5NSLA6b" opacity="1" fill="#25262a" fill-opacity="1"></use><g><use xlink:href="#do5NSLA6b" opacity="1" fill-opacity="0" stroke="#000000" stroke-width="1" stroke-opacity="0"></use></g></g><g><use xlink:href="#i3QX4bCerC" opacity="1" fill="#000000" fill-opacity="0"></use><g><use xlink:href="#i3QX4bCerC" opacity="1" fill-opacity="0" stroke="#000000" stroke-width="1" stroke-opacity="0"></use></g></g><g><use xlink:href="#b6ZUJL5dT" opacity="1" fill="#25262a" fill-opacity="1"></use><g><use xlink:href="#b6ZUJL5dT" opacity="1" fill-opacity="0" stroke="#000000" stroke-width="1" stroke-opacity="0"></use></g></g><g><use xlink:href="#a8vE74wey9" opacity="1" fill="#000000" fill-opacity="0"></use><g><use xlink:href="#a8vE74wey9" opacity="1" fill-opacity="0" stroke="#000000" stroke-width="1" stroke-opacity="0"></use></g></g><g><use xlink:href="#b3yBG5IV0B" opacity="1" fill="#25262a" fill-opacity="1"></use><g><use xlink:href="#b3yBG5IV0B" opacity="1" fill-opacity="0" stroke="#000000" stroke-width="1" stroke-opacity="0"></use></g></g><g><use xlink:href="#f2DRwvdBmv" opacity="1" fill="#000000" fill-opacity="0"></use><g><use xlink:href="#f2DRwvdBmv" opacity="1" fill-opacity="0" stroke="#000000" stroke-width="1" stroke-opacity="0"></use></g></g><g><use xlink:href="#f26KSu2Nw7" opacity="1" fill="#dee2d1" fill-opacity="1"></use><g><use xlink:href="#f26KSu2Nw7" opacity="1" fill-opacity="0" stroke="#000000" stroke-width="1" stroke-opacity="0"></use></g></g><g><use xlink:href="#cbyfo2RUC" opacity="1" fill="#000000" fill-opacity="0"></use><g><use xlink:href="#cbyfo2RUC" opacity="1" fill-opacity="0" stroke="#000000" stroke-width="1" stroke-opacity="0"></use></g></g><g><use xlink:href="#ciq43zOE6" opacity="1" fill="#f06966" fill-opacity="1"></use><g><use xlink:href="#ciq43zOE6" opacity="1" fill-opacity="0" stroke="#000000" stroke-width="1" stroke-opacity="0"></use></g></g><g><use xlink:href="#btNf22a4w" opacity="1" fill="#000000" fill-opacity="0"></use><g><use xlink:href="#btNf22a4w" opacity="1" fill-opacity="0" stroke="#000000" stroke-width="1" stroke-opacity="0"></use></g></g><g><use xlink:href="#a1zOwmuJdv" opacity="1" fill="#f06966" fill-opacity="1"></use><g><use xlink:href="#a1zOwmuJdv" opacity="1" fill-opacity="0" stroke="#000000" stroke-width="1" stroke-opacity="0"></use></g></g><g><use xlink:href="#a3RRW9XqzM" opacity="1" fill="#000000" fill-opacity="0"></use><g><use xlink:href="#a3RRW9XqzM" opacity="1" fill-opacity="0" stroke="#000000" stroke-width="1" stroke-opacity="0"></use></g></g><g><use xlink:href="#a55GrsJwQ" opacity="1" fill="#dee2d1" fill-opacity="1"></use><g><use xlink:href="#a55GrsJwQ" opacity="1" fill-opacity="0" stroke="#000000" stroke-width="1" stroke-opacity="0"></use></g></g><g><use xlink:href="#ecHUcAf5b" opacity="1" fill="#000000" fill-opacity="0"></use><g><use xlink:href="#ecHUcAf5b" opacity="1" fill-opacity="0" stroke="#000000" stroke-width="1" stroke-opacity="0"></use></g></g><g><use xlink:href="#d1461XTG2F" opacity="1" fill="#f06966" fill-opacity="1"></use><g><use xlink:href="#d1461XTG2F" opacity="1" fill-opacity="0" stroke="#000000" stroke-width="1" stroke-opacity="0"></use></g></g><g><use xlink:href="#a2aiAN0YWm" opacity="1" fill="#000000" fill-opacity="0"></use><g><use xlink:href="#a2aiAN0YWm" opacity="1" fill-opacity="0" stroke="#000000" stroke-width="1" stroke-opacity="0"></use></g></g><g><use xlink:href="#b105FRX6g2" opacity="1" fill="#f06966" fill-opacity="1"></use><g><use xlink:href="#b105FRX6g2" opacity="1" fill-opacity="0" stroke="#000000" stroke-width="1" stroke-opacity="0"></use></g></g><g><use xlink:href="#cgyQV2O4Q" opacity="1" fill="#000000" fill-opacity="0"></use><g><use xlink:href="#cgyQV2O4Q" opacity="1" fill-opacity="0" stroke="#000000" stroke-width="1" stroke-opacity="0"></use></g></g><g><use xlink:href="#b1wXL1HAv" opacity="1" fill="#251613" fill-opacity="1"></use><g><use xlink:href="#b1wXL1HAv" opacity="1" fill-opacity="0" stroke="#000000" stroke-width="1" stroke-opacity="0"></use></g></g><g><use xlink:href="#b5WFP56z4z" opacity="1" fill="#000000" fill-opacity="0"></use><g><use xlink:href="#b5WFP56z4z" opacity="1" fill-opacity="0" stroke="#000000" stroke-width="1" stroke-opacity="0"></use></g></g><g><use xlink:href="#c4IenGr9x" opacity="1" fill="#dee2d1" fill-opacity="1"></use><g><use xlink:href="#c4IenGr9x" opacity="1" fill-opacity="0" stroke="#000000" stroke-width="1" stroke-opacity="0"></use></g></g><g><use xlink:href="#aTkC6cBEk" opacity="1" fill="#000000" fill-opacity="0"></use><g><use xlink:href="#aTkC6cBEk" opacity="1" fill-opacity="0" stroke="#000000" stroke-width="1" stroke-opacity="0"></use></g></g><g><use xlink:href="#b2qCmfgrl" opacity="1" fill="#f06966" fill-opacity="1"></use><g><use xlink:href="#b2qCmfgrl" opacity="1" fill-opacity="0" stroke="#000000" stroke-width="1" stroke-opacity="0"></use></g></g><g><use xlink:href="#aGBdSaDvM" opacity="1" fill="#000000" fill-opacity="0"></use><g><use xlink:href="#aGBdSaDvM" opacity="1" fill-opacity="0" stroke="#000000" stroke-width="1" stroke-opacity="0"></use></g></g><g><use xlink:href="#a2xCOat6y0" opacity="1" fill="#f06966" fill-opacity="1"></use><g><use xlink:href="#a2xCOat6y0" opacity="1" fill-opacity="0" stroke="#000000" stroke-width="1" stroke-opacity="0"></use></g></g><g><use xlink:href="#h1PdHJOhF2" opacity="1" fill="#000000" fill-opacity="0"></use><g><use xlink:href="#h1PdHJOhF2" opacity="1" fill-opacity="0" stroke="#000000" stroke-width="1" stroke-opacity="0"></use></g></g><g><use xlink:href="#byeDtFzGn" opacity="1" fill="#dee2d1" fill-opacity="1"></use><g><use xlink:href="#byeDtFzGn" opacity="1" fill-opacity="0" stroke="#000000" stroke-width="1" stroke-opacity="0"></use></g></g><g><use xlink:href="#a16Q0TQtKK" opacity="1" fill="#000000" fill-opacity="0"></use><g><use xlink:href="#a16Q0TQtKK" opacity="1" fill-opacity="0" stroke="#000000" stroke-width="1" stroke-opacity="0"></use></g></g><g><use xlink:href="#e4UuA2PQDf" opacity="1" fill="#dee2d1" fill-opacity="1"></use><g><use xlink:href="#e4UuA2PQDf" opacity="1" fill-opacity="0" stroke="#000000" stroke-width="1" stroke-opacity="0"></use></g></g><g><use xlink:href="#g3SbxGMCZ" opacity="1" fill="#000000" fill-opacity="0"></use><g><use xlink:href="#g3SbxGMCZ" opacity="1" fill-opacity="0" stroke="#000000" stroke-width="1" stroke-opacity="0"></use></g></g><g><use xlink:href="#b87uaqFiMq" opacity="1" fill="#f06966" fill-opacity="1"></use><g><use xlink:href="#b87uaqFiMq" opacity="1" fill-opacity="0" stroke="#000000" stroke-width="1" stroke-opacity="0"></use></g></g><g><use xlink:href="#bGjXzagSd" opacity="1" fill="#000000" fill-opacity="0"></use><g><use xlink:href="#bGjXzagSd" opacity="1" fill-opacity="0" stroke="#000000" stroke-width="1" stroke-opacity="0"></use></g></g><g><use xlink:href="#afDhU8oiT" opacity="1" fill="#dee2d1" fill-opacity="1"></use><g><use xlink:href="#afDhU8oiT" opacity="1" fill-opacity="0" stroke="#000000" stroke-width="1" stroke-opacity="0"></use></g></g><g><use xlink:href="#elIoDrUSJ" opacity="1" fill="#000000" fill-opacity="0"></use><g><use xlink:href="#elIoDrUSJ" opacity="1" fill-opacity="0" stroke="#000000" stroke-width="1" stroke-opacity="0"></use></g></g><g><use xlink:href="#c50jaNFWg" opacity="1" fill="#282900" fill-opacity="1"></use><g><use xlink:href="#c50jaNFWg" opacity="1" fill-opacity="0" stroke="#000000" stroke-width="1" stroke-opacity="0"></use></g></g><g><use xlink:href="#a5yJElemVY" opacity="1" fill="#000000" fill-opacity="0"></use><g><use xlink:href="#a5yJElemVY" opacity="1" fill-opacity="0" stroke="#000000" stroke-width="1" stroke-opacity="0"></use></g></g><g><use xlink:href="#feF6Gcxbk" opacity="1" fill="#313238" fill-opacity="1"></use><g><use xlink:href="#feF6Gcxbk" opacity="1" fill-opacity="0" stroke="#000000" stroke-width="1" stroke-opacity="0"></use></g></g><g><use xlink:href="#b9HamHsIq" opacity="1" fill="#000000" fill-opacity="0"></use><g><use xlink:href="#b9HamHsIq" opacity="1" fill-opacity="0" stroke="#000000" stroke-width="1" stroke-opacity="0"></use></g></g><g><use xlink:href="#a1c6pSN9BT" opacity="1" fill="#25262a" fill-opacity="1"></use><g><use xlink:href="#a1c6pSN9BT" opacity="1" fill-opacity="0" stroke="#000000" stroke-width="1" stroke-opacity="0"></use></g></g><g><use xlink:href="#ab6S1voO6" opacity="1" fill="#000000" fill-opacity="0"></use><g><use xlink:href="#ab6S1voO6" opacity="1" fill-opacity="0" stroke="#000000" stroke-width="1" stroke-opacity="0"></use></g></g><g><use xlink:href="#be0dbgROh" opacity="1" fill="#25262a" fill-opacity="1"></use><g><use xlink:href="#be0dbgROh" opacity="1" fill-opacity="0" stroke="#000000" stroke-width="1" stroke-opacity="0"></use></g></g><g><use xlink:href="#f3YBlCLMuT" opacity="1" fill="#000000" fill-opacity="0"></use><g><use xlink:href="#f3YBlCLMuT" opacity="1" fill-opacity="0" stroke="#000000" stroke-width="1" stroke-opacity="0"></use></g></g><g><use xlink:href="#bcbE9WRL8" opacity="1" fill="#25262a" fill-opacity="1"></use><g><use xlink:href="#bcbE9WRL8" opacity="1" fill-opacity="0" stroke="#000000" stroke-width="1" stroke-opacity="0"></use></g></g><g><use xlink:href="#a1ToCgk4u" opacity="1" fill="#000000" fill-opacity="0"></use><g><use xlink:href="#a1ToCgk4u" opacity="1" fill-opacity="0" stroke="#000000" stroke-width="1" stroke-opacity="0"></use></g></g><g><use xlink:href="#buGI5kLQX" opacity="1" fill="#25262a" fill-opacity="1"></use><g><use xlink:href="#buGI5kLQX" opacity="1" fill-opacity="0" stroke="#000000" stroke-width="1" stroke-opacity="0"></use></g></g><g><use xlink:href="#eiymIXdE8" opacity="1" fill="#000000" fill-opacity="0"></use><g><use xlink:href="#eiymIXdE8" opacity="1" fill-opacity="0" stroke="#000000" stroke-width="1" stroke-opacity="0"></use></g></g><g><use xlink:href="#b7e3DZ2qE" opacity="1" fill="#25262a" fill-opacity="1"></use><g><use xlink:href="#b7e3DZ2qE" opacity="1" fill-opacity="0" stroke="#000000" stroke-width="1" stroke-opacity="0"></use></g></g><g><use xlink:href="#hbzTHpzAF" opacity="1" fill="#000000" fill-opacity="0"></use><g><use xlink:href="#hbzTHpzAF" opacity="1" fill-opacity="0" stroke="#000000" stroke-width="1" stroke-opacity="0"></use></g></g><g><use xlink:href="#b4eRGuAuU" opacity="1" fill="#313238" fill-opacity="1"></use><g><use xlink:href="#b4eRGuAuU" opacity="1" fill-opacity="0" stroke="#000000" stroke-width="1" stroke-opacity="0"></use></g></g><g><use xlink:href="#a4tVZcVfFQ" opacity="1" fill="#000000" fill-opacity="0"></use><g><use xlink:href="#a4tVZcVfFQ" opacity="1" fill-opacity="0" stroke="#000000" stroke-width="1" stroke-opacity="0"></use></g></g><g><use xlink:href="#b2AUKuQbpK" opacity="1" fill="#25262a" fill-opacity="1"></use><g><use xlink:href="#b2AUKuQbpK" opacity="1" fill-opacity="0" stroke="#000000" stroke-width="1" stroke-opacity="0"></use></g></g><g><use xlink:href="#ivPlj4Xqu" opacity="1" fill="#000000" fill-opacity="0"></use><g><use xlink:href="#ivPlj4Xqu" opacity="1" fill-opacity="0" stroke="#000000" stroke-width="1" stroke-opacity="0"></use></g></g><g><use xlink:href="#a3qeDytdk7" opacity="1" fill="#25262a" fill-opacity="1"></use><g><use xlink:href="#a3qeDytdk7" opacity="1" fill-opacity="0" stroke="#000000" stroke-width="1" stroke-opacity="0"></use></g></g><g><use xlink:href="#e1hnFa1ku6" opacity="1" fill="#000000" fill-opacity="0"></use><g><use xlink:href="#e1hnFa1ku6" opacity="1" fill-opacity="0" stroke="#000000" stroke-width="1" stroke-opacity="0"></use></g></g><g><use xlink:href="#bN51SIl8K" opacity="1" fill="#25262a" fill-opacity="1"></use><g><use xlink:href="#bN51SIl8K" opacity="1" fill-opacity="0" stroke="#000000" stroke-width="1" stroke-opacity="0"></use></g></g><g><use xlink:href="#b1ktt3Q1UQ" opacity="1" fill="#000000" fill-opacity="0"></use><g><use xlink:href="#b1ktt3Q1UQ" opacity="1" fill-opacity="0" stroke="#000000" stroke-width="1" stroke-opacity="0"></use></g></g><g><use xlink:href="#ay4dSU3iO" opacity="1" fill="#25262a" fill-opacity="1"></use><g><use xlink:href="#ay4dSU3iO" opacity="1" fill-opacity="0" stroke="#000000" stroke-width="1" stroke-opacity="0"></use></g></g><g><use xlink:href="#cpLgdPbAF" opacity="1" fill="#000000" fill-opacity="0"></use><g><use xlink:href="#cpLgdPbAF" opacity="1" fill-opacity="0" stroke="#000000" stroke-width="1" stroke-opacity="0"></use></g></g><g><use xlink:href="#b5JAMPVoSf" opacity="1" fill="#dee2d1" fill-opacity="1"></use><g><use xlink:href="#b5JAMPVoSf" opacity="1" fill-opacity="0" stroke="#000000" stroke-width="1" stroke-opacity="0"></use></g></g><g><use xlink:href="#a48q1TRW9" opacity="1" fill="#000000" fill-opacity="0"></use><g><use xlink:href="#a48q1TRW9" opacity="1" fill-opacity="0" stroke="#000000" stroke-width="1" stroke-opacity="0"></use></g></g><g><use xlink:href="#c3XMBLh5WS" opacity="1" fill="#f06966" fill-opacity="1"></use><g><use xlink:href="#c3XMBLh5WS" opacity="1" fill-opacity="0" stroke="#000000" stroke-width="1" stroke-opacity="0"></use></g></g><g><use xlink:href="#gT27fBv6p" opacity="1" fill="#000000" fill-opacity="0"></use><g><use xlink:href="#gT27fBv6p" opacity="1" fill-opacity="0" stroke="#000000" stroke-width="1" stroke-opacity="0"></use></g></g><g><use xlink:href="#f35EipLWV" opacity="1" fill="#dee2d1" fill-opacity="1"></use><g><use xlink:href="#f35EipLWV" opacity="1" fill-opacity="0" stroke="#000000" stroke-width="1" stroke-opacity="0"></use></g></g><g><use xlink:href="#bdoWEsfUw" opacity="1" fill="#000000" fill-opacity="0"></use><g><use xlink:href="#bdoWEsfUw" opacity="1" fill-opacity="0" stroke="#000000" stroke-width="1" stroke-opacity="0"></use></g></g><g><use xlink:href="#c2xnsXXY8" opacity="1" fill="#f9deb7" fill-opacity="1"></use><g><use xlink:href="#c2xnsXXY8" opacity="1" fill-opacity="0" stroke="#000000" stroke-width="1" stroke-opacity="0"></use></g></g><g><use xlink:href="#a4pHXiRG1" opacity="1" fill="#000000" fill-opacity="0"></use><g><use xlink:href="#a4pHXiRG1" opacity="1" fill-opacity="0" stroke="#000000" stroke-width="1" stroke-opacity="0"></use></g></g><g><use xlink:href="#aySBtPQea" opacity="1" fill="#313238" fill-opacity="1"></use><g><use xlink:href="#aySBtPQea" opacity="1" fill-opacity="0" stroke="#000000" stroke-width="1" stroke-opacity="0"></use></g></g><g><use xlink:href="#b2NqsgguCj" opacity="1" fill="#000000" fill-opacity="0"></use><g><use xlink:href="#b2NqsgguCj" opacity="1" fill-opacity="0" stroke="#000000" stroke-width="1" stroke-opacity="0"></use></g></g><g><use xlink:href="#ccGf092q" opacity="1" fill="#25262a" fill-opacity="1"></use><g><use xlink:href="#ccGf092q" opacity="1" fill-opacity="0" stroke="#000000" stroke-width="1" stroke-opacity="0"></use></g></g><g><use xlink:href="#a2g01nE4Wl" opacity="1" fill="#000000" fill-opacity="0"></use><g><use xlink:href="#a2g01nE4Wl" opacity="1" fill-opacity="0" stroke="#000000" stroke-width="1" stroke-opacity="0"></use></g></g><g><use xlink:href="#f26GL5O0tu" opacity="1" fill="#25262a" fill-opacity="1"></use><g><use xlink:href="#f26GL5O0tu" opacity="1" fill-opacity="0" stroke="#000000" stroke-width="1" stroke-opacity="0"></use></g></g><g><use xlink:href="#eN8Eh9qzz" opacity="1" fill="#000000" fill-opacity="0"></use><g><use xlink:href="#eN8Eh9qzz" opacity="1" fill-opacity="0" stroke="#000000" stroke-width="1" stroke-opacity="0"></use></g></g><g><use xlink:href="#b198qQtmu" opacity="1" fill="#25262a" fill-opacity="1"></use><g><use xlink:href="#b198qQtmu" opacity="1" fill-opacity="0" stroke="#000000" stroke-width="1" stroke-opacity="0"></use></g></g><g><use xlink:href="#d1s7MvPXnV" opacity="1" fill="#000000" fill-opacity="0"></use><g><use xlink:href="#d1s7MvPXnV" opacity="1" fill-opacity="0" stroke="#000000" stroke-width="1" stroke-opacity="0"></use></g></g><g><use xlink:href="#aGKHrRKw3" opacity="1" fill="#f06966" fill-opacity="1"></use><g><use xlink:href="#aGKHrRKw3" opacity="1" fill-opacity="0" stroke="#000000" stroke-width="1" stroke-opacity="0"></use></g></g><g><use xlink:href="#kBRHwmVxB" opacity="1" fill="#000000" fill-opacity="0"></use><g><use xlink:href="#kBRHwmVxB" opacity="1" fill-opacity="0" stroke="#000000" stroke-width="1" stroke-opacity="0"></use></g></g><g><use xlink:href="#h6hbKzY1f" opacity="1" fill="#dee2d1" fill-opacity="1"></use><g><use xlink:href="#h6hbKzY1f" opacity="1" fill-opacity="0" stroke="#000000" stroke-width="1" stroke-opacity="0"></use></g></g><g><use xlink:href="#a4LBRFLa6R" opacity="1" fill="#000000" fill-opacity="0"></use><g><use xlink:href="#a4LBRFLa6R" opacity="1" fill-opacity="0" stroke="#000000" stroke-width="1" stroke-opacity="0"></use></g></g><g><use xlink:href="#i2n9hWzkAb" opacity="1" fill="#f9deb7" fill-opacity="1"></use><g><use xlink:href="#i2n9hWzkAb" opacity="1" fill-opacity="0" stroke="#000000" stroke-width="1" stroke-opacity="0"></use></g></g><g><use xlink:href="#bSsMkE6q" opacity="1" fill="#000000" fill-opacity="0"></use><g><use xlink:href="#bSsMkE6q" opacity="1" fill-opacity="0" stroke="#000000" stroke-width="1" stroke-opacity="0"></use></g></g><g><use xlink:href="#c3t1RBjp2T" opacity="1" fill="#f9deb7" fill-opacity="1"></use><g><use xlink:href="#c3t1RBjp2T" opacity="1" fill-opacity="0" stroke="#000000" stroke-width="1" stroke-opacity="0"></use></g></g><g><use xlink:href="#aicburylm" opacity="1" fill="#000000" fill-opacity="0"></use><g><use xlink:href="#aicburylm" opacity="1" fill-opacity="0" stroke="#000000" stroke-width="1" stroke-opacity="0"></use></g></g><g><use xlink:href="#a2qnCix5AD" opacity="1" fill="#dee2d1" fill-opacity="1"></use><g><use xlink:href="#a2qnCix5AD" opacity="1" fill-opacity="0" stroke="#000000" stroke-width="1" stroke-opacity="0"></use></g></g><g><use xlink:href="#b19geyvOK2" opacity="1" fill="#000000" fill-opacity="0"></use><g><use xlink:href="#b19geyvOK2" opacity="1" fill-opacity="0" stroke="#000000" stroke-width="1" stroke-opacity="0"></use></g></g><g><use xlink:href="#auzld6G0P" opacity="1" fill="#eacfac" fill-opacity="1"></use><g><use xlink:href="#auzld6G0P" opacity="1" fill-opacity="0" stroke="#000000" stroke-width="1" stroke-opacity="0"></use></g></g><g><use xlink:href="#bzHjJqCMd" opacity="1" fill="#000000" fill-opacity="0"></use><g><use xlink:href="#bzHjJqCMd" opacity="1" fill-opacity="0" stroke="#000000" stroke-width="1" stroke-opacity="0"></use></g></g><g><use xlink:href="#bRhw0HDPl" opacity="1" fill="#4a2c26" fill-opacity="1"></use><g><use xlink:href="#bRhw0HDPl" opacity="1" fill-opacity="0" stroke="#000000" stroke-width="1" stroke-opacity="0"></use></g></g><g><use xlink:href="#a68pg1dog1" opacity="1" fill="#000000" fill-opacity="0"></use><g><use xlink:href="#a68pg1dog1" opacity="1" fill-opacity="0" stroke="#000000" stroke-width="1" stroke-opacity="0"></use></g></g></g></svg>