<?xml version="1.0" encoding="UTF-8" standalone="no"?>
<svg
   xmlns:dc="http://purl.org/dc/elements/1.1/"
   xmlns:cc="http://creativecommons.org/ns#"
   xmlns:rdf="http://www.w3.org/1999/02/22-rdf-syntax-ns#"
   xmlns:svg="http://www.w3.org/2000/svg"
   xmlns="http://www.w3.org/2000/svg"
   viewBox="0 0 1556.6667 384"
   height="384"
   width="1556.6667"
   xml:space="preserve"
   id="svg2"
   version="1.1">
  <metadata
     id="metadata8">
    <rdf:RDF>
      <cc:Work
         rdf:about="">
        <dc:format>image/svg+xml</dc:format>
        <dc:type
           rdf:resource="http://purl.org/dc/dcmitype/StillImage" />
        <dc:title></dc:title>
      </cc:Work>
    </rdf:RDF>
  </metadata>
  <defs
     id="defs6">
    <clipPath
       id="clipPath18"
       clipPathUnits="userSpaceOnUse">
      <path
         id="path16"
         d="m 0,288 h 1167.497 v -288 h -1167.497 z" />
    </clipPath>
  </defs>
  <g
     transform="matrix(1.3333333,0,0,-1.3333333,0,384)"
     id="g10">
    <g
       id="g12">
      <g
         clip-path="url(#clipPath18)"
         id="g14">
        <g
           transform="translate(224.5508,137.8887)"
           id="g20">
          <path
             id="path22"
             style="fill:#382810;fill-opacity:1;fill-rule:nonzero;stroke:none"
             d="m 0,0 c 4.905,-65.414 -18.845,-128.174 -66.499,-128.174 -47.651,0 -135.48,4.654 -135.48,69.945 0,65.294 60.024,124.548 107.671,124.548 47.653,0 89.425,-1.207 94.308,-66.319" />
        </g>
        <g
           transform="translate(64.7773,19.0049)"
           id="g24">
          <path
             id="path26"
             style="fill:#f8faf2;fill-opacity:1;fill-rule:nonzero;stroke:none"
             d="m 0,0 c 0,26.73 26.97,48.405 60.231,48.405 33.264,0 60.233,-21.675 60.233,-48.405" />
        </g>
        <path
           id="path28"
           style="fill:#f8faf2;fill-opacity:1;fill-rule:nonzero;stroke:none"
           d="m 137.974,63.951 h -25.499 v 34.58 h 25.499 z" />
        <g
           transform="translate(47.5664,5.042)"
           id="g30">
          <path
             id="path32"
             style="fill:#63481c;fill-opacity:1;fill-rule:nonzero;stroke:none"
             d="m 0,0 -6.158,-0.311" />
        </g>
        <g
           transform="translate(183.7519,4.7314)"
           id="g34">
          <path
             id="path36"
             style="fill:#fecf50;fill-opacity:1;fill-rule:nonzero;stroke:none"
             d="m 0,0 h 33.988 c -11.474,24.646 -31.741,44.024 -56.565,53.717 -7.782,-9.985 -20.878,-16.541 -35.73,-16.541 -14.977,0 -28.174,6.664 -35.932,16.792 -25.126,-9.605 -45.658,-29.102 -57.234,-53.968 h 33.515 z" />
        </g>
        <g
           transform="translate(201.6836,161.585)"
           id="g38">
          <path
             id="path40"
             style="fill:#f8faf2;fill-opacity:1;fill-rule:nonzero;stroke:none"
             d="m 0,0 c 0,-29.909 -41.354,-55.682 -63.596,-67.378 -8.628,-4.537 -18.916,-4.537 -27.545,0 -22.236,11.696 -63.595,37.469 -63.595,67.378 0,40.918 34.638,81.713 77.368,81.713 42.729,0 77.368,-40.795 77.368,-81.713" />
        </g>
        <g
           transform="translate(41.4082,4.7314)"
           id="g42">
          <path
             id="path44"
             style="fill:#63481c;fill-opacity:1;fill-rule:nonzero;stroke:none"
             d="m 0,0 c 3.396,8.724 -1.271,15.444 -6.207,23.399 -4.936,7.95 -11.202,15.392 -13.449,24.472 -4.854,19.616 10.243,38.07 15.141,57.675 7.144,28.6 -7.877,58.843 -2.696,87.858 4.362,24.448 18.462,49.321 40.705,60.367 22.242,11.039 53.111,15.399 77.102,8.98 19.352,-5.181 27.847,-10.943 32.442,-17.4 11.146,-15.672 18.24,-34.204 20.405,-53.317 3.062,-26.956 -3.313,-55.661 7.624,-80.486 3.031,-6.874 7.613,-13.45 14.354,-16.77 6.733,-3.32 15.898,-2.462 20.532,3.452 4.638,5.908 1.962,16.531 -5.391,18.064 1.743,3.951 7.574,4.715 11.09,2.209 3.509,-2.506 4.892,-7.15 4.795,-11.461 -0.371,-16.441 -20.607,-27.659 -36.051,-22.016 -15.45,5.644 -24.021,23.643 -22.292,39.998 -10.238,-16.001 -32.909,-39.94 -2.973,-64.17 -25.656,2.854 -27.557,40.86 -23.283,55.591 6.109,21.039 23.446,10.492 18.612,59.338 -9.031,1.899 -26.029,5.737 -38.381,5.737 3.327,8.552 1.238,31.381 -17.766,49.439 10.924,-15.205 12.616,-38.867 11.669,-49.799 -4.266,0.057 -15.457,-0.056 -19.73,0 -1.564,8.274 -0.587,26.818 -3.818,34.594 -0.246,-8.64 2.6,-21.883 -1.206,-34.234 -24.704,0.947 -50.183,-8.899 -63.488,-16.499 0,0 -1.074,-5.737 10.047,-19.01 6.495,-7.751 9.323,-20.09 10.585,-32.696 1.01,-10.06 -5.245,-33.705 -13.431,-39.631 17.578,26.604 -6.059,49.332 -16.63,65.093 14.731,-43.714 -18.892,-54.186 -14.422,-80.289 2.429,-14.148 7.434,-13.866 13.456,-26.901 3.224,-6.993 4.424,-23.073 -1.187,-31.587 z" />
        </g>
        <g
           transform="translate(29.1826,4.7305)"
           id="g46">
          <path
             id="path48"
             style="fill:#63481c;fill-opacity:1;fill-rule:nonzero;stroke:none"
             d="m 0,0 c 0.695,2.626 1.001,5.316 0.717,8.041 -0.586,5.684 -3.693,10.88 -4.223,16.572 -0.845,9.04 9.102,25.425 7.41,34.343 -1.817,9.549 -13.689,17.185 -8.557,30.407 5.181,13.342 14.194,13.779 18.057,27.557 2.027,7.201 -0.985,26.788 -0.796,34.26 0.435,17.572 0.876,35.137 1.313,52.71 l 2.682,2.909 c -6.728,-9.095 -13.5,-18.272 -18.176,-28.573 -4.672,-10.295 -7.145,-21.939 -4.83,-33.01 1.528,-7.315 5.101,-14.289 5.076,-21.771 -0.026,-6.891 -3.138,-13.386 -6.604,-19.343 -3.464,-5.965 -7.409,-11.766 -9.397,-18.368 -1.988,-6.601 -1.691,-14.371 2.739,-19.653 2.897,-3.445 7.335,-5.623 9.342,-9.656 1.806,-3.617 1.225,-7.997 -0.177,-11.795 -1.402,-3.802 -3.559,-7.282 -4.922,-11.091 -2.766,-7.706 -2.04,-16.592 1.943,-23.743 1.256,-2.267 2.828,-4.374 3.799,-6.779 0.398,-0.978 0.685,-1.988 0.873,-3.017 z" />
        </g>
        <g
           transform="translate(69.999,4.7305)"
           id="g50">
          <path
             id="path52"
             style="fill:#63481c;fill-opacity:1;fill-rule:nonzero;stroke:none"
             d="m 0,0 c 1.142,3.165 3.108,8.231 1.805,13.959 -2.066,9.068 -11.64,15.579 -11.899,24.876 -0.329,11.809 14.687,21.011 11.816,32.471 -0.947,3.799 -3.749,6.804 -5.858,10.098 -2.928,4.595 -4.594,9.986 -4.758,15.433 -0.253,8.602 3.143,17.072 2.354,25.643 -0.682,7.487 -4.488,14.286 -8.199,20.824 -4.51,7.946 -7.99,14.676 -10.875,19.131 l -0.21,-1.067 c -5.131,-25.599 -4.921,-52.457 6.098,-76.133 3.718,-7.984 8.836,-15.871 8.636,-24.676 -0.197,-8.552 -5.479,-16.51 -4.949,-25.05 0.65,-10.446 9.808,-18.94 10.3,-29.399 0.098,-2.078 -0.152,-4.109 -0.62,-6.11 z" />
        </g>
        <g
           transform="translate(188.2998,4.7314)"
           id="g54">
          <path
             id="path56"
             style="fill:#63481c;fill-opacity:1;fill-rule:nonzero;stroke:none"
             d="m 0,0 c 0.114,1.803 0.393,3.597 0.836,5.349 2.626,10.306 10.806,19.273 10.282,29.9 -0.48,9.688 -7.997,17.293 -13.324,25.397 -3.428,5.214 -6.052,10.943 -7.775,16.939 -1.585,5.504 -2.318,11.707 0.46,16.713 3.502,6.325 11.329,8.697 16.63,13.615 8.294,7.699 8.597,22.717 -0.011,30.057 -1.238,1.047 -3.827,1.401 -3.864,-0.222 l 0.733,0.537 c -9.027,-11.095 -18.114,-22.547 -22.9,-36.029 -4.784,-13.475 -4.569,-29.563 4.072,-40.953 2.525,-3.326 5.668,-6.142 8.079,-9.55 3.162,-4.463 4.968,-9.87 5.118,-15.343 0.254,-8.886 -3.697,-17.261 -6.387,-25.731 -1.083,-3.414 -1.934,-7.062 -2.237,-10.679 z" />
        </g>
        <g
           transform="translate(212.9912,4.7197)"
           id="g58">
          <path
             id="path60"
             style="fill:#63481c;fill-opacity:1;fill-rule:nonzero;stroke:none"
             d="m 0,0 c 3.762,8.009 6.73,16.324 5.411,24.931 -1.539,10.052 -8.931,19.275 -7.265,29.301 1.124,6.716 6.224,12.454 6.471,19.255 0.271,7.455 -5.253,13.691 -10.302,19.182 -5.048,5.491 -10.294,12.131 -9.296,19.521 0.977,7.272 7.89,13.143 7.384,20.457 -0.39,5.745 -5.215,10.062 -7.763,15.224 -5.756,11.652 0.618,25.474 0.106,38.457 -0.339,8.723 -3.824,16.972 -7.257,24.995 -3.32,7.752 -6.634,15.502 -9.948,23.259 l -0.145,13.494 c 18.052,-5.699 25.607,-37.063 32.966,-52.4 4.083,-8.515 7.668,-18.487 3.901,-27.154 -1.629,-3.742 -4.595,-7.099 -4.742,-11.182 -0.246,-6.761 7.058,-11.21 9.552,-17.497 4.285,-10.812 -6.659,-22.489 -4.589,-33.932 1.508,-8.294 9.542,-14.352 10.654,-22.703 1.414,-10.56 -8.596,-19.28 -10.257,-29.802 -1.609,-10.197 4.823,-19.881 6.015,-30.143 0.977,-8.37 -0.631,-16.904 -6.147,-23.251 z" />
        </g>
        <g
           transform="translate(209.5088,4.7314)"
           id="g62">
          <path
             id="path64"
             style="fill:#63481c;fill-opacity:1;fill-rule:nonzero;stroke:none"
             d="m 0,0 c -0.946,6.065 -6.715,10.611 -7.812,16.649 -1.144,6.262 2.954,12.119 6.45,17.439 3.497,5.32 6.633,12.163 3.654,17.791 -2.683,5.057 -9.89,8.186 -9.215,13.874 0.277,2.359 1.95,4.272 3.245,6.26 4.708,7.225 6.588,27.65 4.013,35.881 -2.582,8.23 -9.329,4.557 -14.182,11.688 l -0.669,0.972 c -3.314,-7.37 -13.501,-12.358 -9.385,-19.313 2.222,-3.749 9.89,-10.887 10.458,-15.205 1.074,-8.262 -1.856,-15.196 -1.521,-23.522 0.259,-6.519 6.362,-11.714 6.62,-18.24 0.266,-6.621 -5.542,-12.166 -5.927,-18.781 -0.523,-9.03 9.01,-16.468 9.573,-25.493 z" />
        </g>
        <g
           transform="translate(184.0293,242.6284)"
           id="g66">
          <path
             id="path68"
             style="fill:#63481c;fill-opacity:1;fill-rule:nonzero;stroke:none"
             d="m 0,0 c 4.979,-3.712 9.961,-7.422 14.939,-11.127 8.553,-6.368 17.672,-13.591 20.134,-23.961 2.059,-8.666 -1.01,-18.051 1.667,-26.547 1.573,-4.985 5.019,-9.234 6.469,-14.258 3.062,-10.622 -3.331,-21.919 -1.723,-32.852 1.068,-7.265 5.637,-14.063 4.722,-21.352 -0.417,-3.289 -1.937,-6.369 -2.222,-9.671 -0.852,-9.776 9.153,-18.29 7.612,-27.983 -1.332,-8.401 -11.028,-14.48 -10.068,-22.931 -1.634,11.841 7.631,24.064 3.251,35.185 -2.418,6.142 -8.779,10.964 -8.482,17.56 0.207,4.777 4.045,9.139 3.155,13.841 -0.909,4.81 -6.273,7.461 -8.262,11.937 -3.086,6.95 2.948,14.485 3.427,22.072 0.611,9.543 -7.39,17.072 -12.894,24.905 -6.084,8.666 -9.467,18.89 -12.762,28.957 -2.815,8.585 -5.63,17.164 -8.439,25.747 -0.871,2.664 -1.748,5.327 -2.909,7.878" />
        </g>
        <g
           transform="translate(77.0859,142.1338)"
           id="g70">
          <path
             id="path72"
             style="fill:#f5c9b8;fill-opacity:1;fill-rule:nonzero;stroke:none"
             d="m 0,0 c 0,6.734 5.459,12.194 12.193,12.194 6.735,0 12.195,-5.46 12.195,-12.194 0,-6.734 -5.46,-12.201 -12.195,-12.201 -6.734,0 -12.193,5.467 -12.193,12.201" />
        </g>
        <g
           transform="translate(154.3838,143.3896)"
           id="g74">
          <path
             id="path76"
             style="fill:#f5c9b8;fill-opacity:1;fill-rule:nonzero;stroke:none"
             d="m 0,0 c 0,6.733 5.46,12.194 12.194,12.194 6.735,0 12.195,-5.461 12.195,-12.194 0,-6.734 -5.46,-12.195 -12.195,-12.195 -6.734,0 -12.194,5.461 -12.194,12.195" />
        </g>
        <g
           transform="translate(87.7588,162.7407)"
           id="g78">
          <path
             id="path80"
             style="fill:#939185;fill-opacity:1;fill-rule:nonzero;stroke:none"
             d="m 0,0 c -2.664,0 -5.321,0.575 -7.727,1.779 -0.535,0.266 -0.75,0.91 -0.485,1.439 0.266,0.537 0.908,0.752 1.445,0.487 6.111,-3.055 14.378,-1.383 18.823,3.812 0.384,0.448 1.065,0.505 1.513,0.113 0.454,-0.384 0.506,-1.066 0.119,-1.514 -3.388,-3.958 -8.543,-6.116 -13.688,-6.116" />
        </g>
        <g
           transform="translate(76.4101,159.0479)"
           id="g82">
          <path
             id="path84"
             style="fill:#939185;fill-opacity:1;fill-rule:nonzero;stroke:none"
             d="m 0,0 c -0.227,0 -0.442,0.146 -0.512,0.373 -0.093,0.284 0.058,0.587 0.341,0.682 2.241,0.726 4.033,2.771 4.47,5.081 0.05,0.29 0.328,0.486 0.623,0.428 0.292,-0.057 0.486,-0.334 0.432,-0.624 -0.5,-2.695 -2.589,-5.068 -5.19,-5.915 -0.057,-0.012 -0.114,-0.025 -0.164,-0.025" />
        </g>
        <g
           transform="translate(79.9512,158.2842)"
           id="g86">
          <path
             id="path88"
             style="fill:#939185;fill-opacity:1;fill-rule:nonzero;stroke:none"
             d="m 0,0 c -0.208,0 -0.404,0.121 -0.492,0.316 -0.12,0.271 -0.006,0.593 0.271,0.713 1.812,0.827 3.087,2.72 3.156,4.715 0.012,0.298 0.258,0.536 0.561,0.517 0.297,-0.006 0.524,-0.258 0.518,-0.554 -0.094,-2.393 -1.616,-4.665 -3.793,-5.657 -0.075,-0.03 -0.152,-0.05 -0.221,-0.05" />
        </g>
        <g
           transform="translate(83.9267,158.9731)"
           id="g90">
          <path
             id="path92"
             style="fill:#939185;fill-opacity:1;fill-rule:nonzero;stroke:none"
             d="m 0,0 c -0.101,0 -0.207,0.025 -0.302,0.094 -0.247,0.171 -0.309,0.506 -0.138,0.744 0.833,1.201 1.533,2.5 2.062,3.864 0.115,0.271 0.423,0.41 0.702,0.296 0.277,-0.107 0.409,-0.416 0.302,-0.694 -0.567,-1.439 -1.301,-2.808 -2.184,-4.077 -0.101,-0.152 -0.265,-0.227 -0.442,-0.227" />
        </g>
        <g
           transform="translate(87.3291,160.2285)"
           id="g94">
          <path
             id="path96"
             style="fill:#939185;fill-opacity:1;fill-rule:nonzero;stroke:none"
             d="m 0,0 c -0.119,0 -0.24,0.044 -0.346,0.127 -0.228,0.183 -0.259,0.523 -0.07,0.756 0.491,0.6 0.763,1.389 0.737,2.166 -0.011,0.296 0.222,0.542 0.518,0.555 0.26,0.031 0.543,-0.221 0.557,-0.517 0.038,-1.036 -0.322,-2.09 -0.986,-2.891 -0.1,-0.127 -0.258,-0.196 -0.41,-0.196" />
        </g>
        <g
           transform="translate(73.6963,161.3521)"
           id="g98">
          <path
             id="path100"
             style="fill:#939185;fill-opacity:1;fill-rule:nonzero;stroke:none"
             d="m 0,0 c -0.606,0 -1.212,0.082 -1.805,0.246 -0.284,0.083 -0.455,0.379 -0.373,0.663 0.081,0.289 0.379,0.455 0.662,0.372 2.67,-0.744 5.846,0.669 7.071,3.162 0.126,0.271 0.448,0.379 0.719,0.246 0.265,-0.132 0.379,-0.454 0.247,-0.719 -1.193,-2.429 -3.845,-3.97 -6.521,-3.97" />
        </g>
        <g
           transform="translate(165.0508,163.0947)"
           id="g102">
          <path
             id="path104"
             style="fill:#939185;fill-opacity:1;fill-rule:nonzero;stroke:none"
             d="m 0,0 c -5.144,0 -10.302,2.158 -13.69,6.122 -0.385,0.448 -0.335,1.129 0.12,1.514 0.448,0.385 1.13,0.335 1.522,-0.119 4.436,-5.188 12.704,-6.861 18.815,-3.813 0.535,0.272 1.178,0.051 1.444,-0.479 0.266,-0.53 0.051,-1.175 -0.479,-1.446 -2.412,-1.198 -5.069,-1.779 -7.732,-1.779" />
        </g>
        <g
           transform="translate(176.4053,159.4077)"
           id="g106">
          <path
             id="path108"
             style="fill:#939185;fill-opacity:1;fill-rule:nonzero;stroke:none"
             d="m 0,0 c -0.057,0 -0.114,0.007 -0.17,0.025 -2.601,0.846 -4.684,3.225 -5.189,5.909 -0.056,0.295 0.14,0.574 0.429,0.63 0.291,0.05 0.575,-0.138 0.631,-0.429 0.43,-2.316 2.223,-4.354 4.462,-5.087 0.285,-0.088 0.437,-0.391 0.348,-0.675 -0.075,-0.227 -0.283,-0.373 -0.511,-0.373" />
        </g>
        <g
           transform="translate(172.8574,158.6445)"
           id="g110">
          <path
             id="path112"
             style="fill:#939185;fill-opacity:1;fill-rule:nonzero;stroke:none"
             d="m 0,0 c -0.068,0 -0.145,0.013 -0.221,0.051 -2.176,0.991 -3.698,3.262 -3.793,5.655 -0.006,0.296 0.221,0.543 0.524,0.555 0.291,0.018 0.544,-0.22 0.555,-0.518 0.076,-1.994 1.345,-3.888 3.163,-4.715 0.271,-0.126 0.391,-0.442 0.264,-0.713 -0.088,-0.195 -0.284,-0.315 -0.492,-0.315" />
        </g>
        <g
           transform="translate(168.8818,159.3325)"
           id="g114">
          <path
             id="path116"
             style="fill:#939185;fill-opacity:1;fill-rule:nonzero;stroke:none"
             d="m 0,0 c -0.171,0 -0.342,0.075 -0.441,0.227 -0.884,1.27 -1.617,2.639 -2.184,4.078 -0.108,0.277 0.031,0.587 0.309,0.699 0.27,0.108 0.587,-0.03 0.693,-0.309 0.537,-1.356 1.231,-2.65 2.065,-3.856 0.17,-0.239 0.107,-0.574 -0.139,-0.745 -0.089,-0.063 -0.196,-0.094 -0.303,-0.094" />
        </g>
        <g
           transform="translate(165.4805,160.5884)"
           id="g118">
          <path
             id="path120"
             style="fill:#939185;fill-opacity:1;fill-rule:nonzero;stroke:none"
             d="m 0,0 c -0.152,0 -0.303,0.063 -0.411,0.196 -0.663,0.801 -1.016,1.849 -0.985,2.891 0.013,0.296 0.285,0.529 0.563,0.517 0.295,-0.013 0.53,-0.265 0.517,-0.562 -0.033,-0.776 0.241,-1.564 0.732,-2.165 0.189,-0.227 0.158,-0.567 -0.069,-0.758 -0.102,-0.081 -0.228,-0.119 -0.347,-0.119" />
        </g>
        <g
           transform="translate(179.1123,161.7119)"
           id="g122">
          <path
             id="path124"
             style="fill:#939185;fill-opacity:1;fill-rule:nonzero;stroke:none"
             d="m 0,0 c -2.676,0 -5.32,1.533 -6.52,3.97 -0.126,0.265 -0.018,0.587 0.247,0.719 0.271,0.133 0.593,0.025 0.724,-0.246 1.22,-2.487 4.388,-3.913 7.064,-3.162 0.291,0.082 0.588,-0.089 0.669,-0.372 0.076,-0.284 -0.088,-0.588 -0.378,-0.663 -0.593,-0.164 -1.2,-0.246 -1.806,-0.246" />
        </g>
        <g
           transform="translate(119.3672,148.7861)"
           id="g126">
          <path
             id="path128"
             style="fill:#e0e2d7;fill-opacity:1;fill-rule:nonzero;stroke:none"
             d="m 0,0 c 0.145,0.492 4.532,5.244 8.444,5.447 5.234,0.278 9.626,-5.081 10.181,-5.485" />
        </g>
        <g
           transform="translate(142.2969,122.7617)"
           id="g130">
          <path
             id="path132"
             style="fill:#f5c9b8;fill-opacity:1;fill-rule:nonzero;stroke:none"
             d="m 0,0 c 0,-2.442 -6.312,-6.457 -13.74,-6.457 -7.429,0 -13.159,4.015 -13.159,6.457 0,2.006 4.064,3.698 9.637,4.235 1.212,0.119 3.636,-1.906 3.636,-1.906 0,0 2.758,2.025 3.957,1.912 5.585,-0.537 9.669,-2.235 9.669,-4.241" />
        </g>
        <g
           transform="translate(127.9443,120.4766)"
           id="g134">
          <path
             id="path136"
             style="fill:#939185;fill-opacity:1;fill-rule:nonzero;stroke:none"
             d="m 0,0 c -7.05,0 -14.637,1.25 -21.77,4.166 -0.548,0.228 -0.807,0.858 -0.585,1.406 0.22,0.55 0.851,0.816 1.401,0.588 16.505,-6.76 35.414,-4.299 43.468,1.862 0.473,0.353 1.148,0.272 1.509,-0.202 0.359,-0.472 0.27,-1.149 -0.204,-1.508 -4.991,-3.819 -13.865,-6.312 -23.819,-6.312" />
        </g>
        <g
           transform="translate(214.915,216.124)"
           id="g138">
          <path
             id="path140"
             style="fill:#ec1c24;fill-opacity:1;fill-rule:evenodd;stroke:none"
             d="m 0,0 c -0.362,-0.165 -0.721,-0.323 -1.085,-0.489 0.795,-1.162 -9.258,-5.88 -10.48,-6.975 -1.039,-0.914 -2.603,-1.005 -3.871,-1.431 -1.786,-0.613 -3.538,-1.385 -5.332,-2.01 -0.581,-0.208 -2.049,-0.407 -2.685,-0.476 -1.66,-0.166 -1.842,1.398 -1.967,2.644 -0.329,3.292 0.129,6.817 0.699,10.047 0.617,3.454 1.065,7.279 3.647,9.888 3.349,3.402 5.019,-0.361 5.063,-3.666 0.022,-1.683 -0.232,-3.393 -0.605,-5.018 -0.323,-1.46 -1.856,-3.876 -1.508,-5.37 4.086,2.877 7.351,7.195 12.022,9.29 2.138,0.974 3.915,0.275 5.954,-0.472 2.691,-0.998 0.866,-4.329 0.148,-5.962 0.316,0.724 -0.193,-0.082 0,0" />
        </g>
        <g
           transform="translate(328.1347,34.7695)"
           id="g142">
          <path
             id="path144"
             style="fill:#231f20;fill-opacity:1;fill-rule:nonzero;stroke:none"
             d="m 0,0 v 6.669 l 24.93,11.539 v -6.034 l -18.631,-8.415 v -0.583 l 18.631,-8.627 v -6.034 z" />
        </g>
        <g
           transform="translate(395.9345,25.5078)"
           id="g146">
          <path
             id="path148"
             style="fill:#231f20;fill-opacity:1;fill-rule:nonzero;stroke:none"
             d="m 0,0 c 0,-2.683 -0.971,-4.826 -2.91,-6.432 -1.942,-1.605 -4.429,-2.408 -7.464,-2.408 -2.046,0 -4.173,0.371 -6.377,1.112 -2.206,0.741 -4.155,1.782 -5.849,3.123 l 2.858,4.605 c 3.282,-2.471 6.458,-3.705 9.527,-3.705 1.341,0 2.4,0.309 3.176,0.926 0.775,0.617 1.164,1.402 1.164,2.355 0,1.411 -1.87,2.682 -5.61,3.811 -0.283,0.106 -0.494,0.176 -0.635,0.212 -5.858,1.588 -8.786,4.234 -8.786,7.939 0,2.61 1.013,4.701 3.043,6.273 2.029,1.569 4.666,2.354 7.913,2.354 3.246,0 6.316,-0.952 9.21,-2.857 l -2.224,-4.394 c -2.294,1.517 -4.781,2.276 -7.463,2.276 -1.411,0 -2.558,-0.256 -3.44,-0.767 -0.882,-0.512 -1.323,-1.279 -1.323,-2.303 0,-0.918 0.459,-1.588 1.377,-2.011 0.634,-0.318 1.525,-0.618 2.672,-0.9 1.146,-0.282 2.161,-0.564 3.043,-0.847 0.882,-0.283 1.738,-0.6 2.568,-0.953 0.828,-0.352 1.719,-0.847 2.673,-1.481 1.905,-1.271 2.857,-3.247 2.857,-5.928" />
        </g>
        <g
           transform="translate(409.9619,40.4863)"
           id="g150">
          <path
             id="path152"
             style="fill:#231f20;fill-opacity:1;fill-rule:nonzero;stroke:none"
             d="m 0,0 v -14.291 c 0,-1.341 0.352,-2.408 1.059,-3.202 0.705,-0.794 1.693,-1.191 2.963,-1.191 1.27,0 2.488,0.617 3.652,1.853 l 2.435,-4.182 c -2.083,-1.871 -4.385,-2.805 -6.907,-2.805 -2.523,0 -4.677,0.874 -6.458,2.62 -1.782,1.747 -2.673,4.102 -2.673,7.066 v 14.132 h -3.546 v 4.764 h 3.546 v 8.839 h 5.929 v -8.839 h 7.409 v -4.764 z" />
        </g>
        <g
           transform="translate(439.5488,39.6924)"
           id="g154">
          <path
             id="path156"
             style="fill:#231f20;fill-opacity:1;fill-rule:nonzero;stroke:none"
             d="m 0,0 c -2.93,0 -5.135,-0.953 -6.616,-2.858 -1.483,-1.906 -2.224,-4.464 -2.224,-7.675 v -12.068 h -5.928 v 28.159 h 5.928 v -5.664 c 0.953,1.764 2.25,3.21 3.891,4.34 1.64,1.129 3.378,1.711 5.214,1.746 l 0.052,-5.98 z" />
        </g>
        <g
           transform="translate(451.8535,24.5283)"
           id="g158">
          <path
             id="path160"
             style="fill:#231f20;fill-opacity:1;fill-rule:nonzero;stroke:none"
             d="m 0,0 c 1.676,-1.712 3.802,-2.567 6.378,-2.567 2.575,0 4.701,0.855 6.378,2.567 1.675,1.711 2.514,3.925 2.514,6.643 0,2.716 -0.839,4.93 -2.514,6.642 -1.677,1.711 -3.803,2.567 -6.378,2.567 -2.576,0 -4.702,-0.856 -6.378,-2.567 -1.677,-1.712 -2.515,-3.926 -2.515,-6.642 0,-2.718 0.838,-4.932 2.515,-6.643 m 16.964,-3.652 c -2.824,-2.805 -6.352,-4.208 -10.586,-4.208 -4.234,0 -7.764,1.403 -10.586,4.208 -2.823,2.805 -4.234,6.236 -4.234,10.295 0,4.057 1.411,7.489 4.234,10.294 2.822,2.805 6.352,4.208 10.586,4.208 4.234,0 7.762,-1.403 10.586,-4.208 2.822,-2.805 4.233,-6.237 4.233,-10.294 0,-4.059 -1.411,-7.49 -4.233,-10.295" />
        </g>
        <g
           transform="translate(485.7002,32.335)"
           id="g162">
          <path
             id="path164"
             style="fill:#231f20;fill-opacity:1;fill-rule:nonzero;stroke:none"
             d="m 0,0 v -15.243 h -5.928 v 28.158 h 5.928 v -5.135 c 0.953,1.729 2.268,3.088 3.943,4.076 1.676,0.988 3.485,1.482 5.426,1.482 3.175,0 5.742,-0.971 7.7,-2.911 1.959,-1.941 2.939,-4.746 2.939,-8.415 v -17.255 h -5.929 v 15.455 c 0,5.187 -2.152,7.78 -6.457,7.78 -2.047,0 -3.829,-0.68 -5.346,-2.037 -1.517,-1.359 -2.276,-3.344 -2.276,-5.955" />
        </g>
        <g
           transform="translate(518.04,32.2559)"
           id="g166">
          <path
             id="path168"
             style="fill:#231f20;fill-opacity:1;fill-rule:nonzero;stroke:none"
             d="m 0,0 c 0,-2.312 0.715,-4.306 2.144,-5.981 1.429,-1.676 3.352,-2.514 5.769,-2.514 2.417,0 4.375,0.811 5.875,2.434 1.5,1.624 2.25,3.644 2.25,6.061 0,2.416 -0.76,4.463 -2.276,6.14 -1.518,1.675 -3.476,2.513 -5.875,2.513 -2.401,0 -4.314,-0.864 -5.743,-2.592 -1.429,-1.73 -2.144,-3.75 -2.144,-6.061 m 21.966,12.994 v -24.558 c 0,-4.976 -1.35,-8.707 -4.049,-11.196 -2.699,-2.487 -6.166,-3.731 -10.4,-3.731 -4.235,0 -8.064,1.323 -11.487,3.97 l 2.806,4.499 c 2.752,-2.082 5.531,-3.123 8.336,-3.123 2.806,0 5.028,0.724 6.669,2.17 1.641,1.448 2.462,3.758 2.462,6.934 v 3.599 c -0.883,-1.66 -2.144,-2.983 -3.785,-3.97 -1.641,-0.988 -3.485,-1.482 -5.531,-1.482 -3.741,0 -6.81,1.305 -9.21,3.916 -2.4,2.612 -3.598,5.858 -3.598,9.74 0,3.881 1.198,7.127 3.598,9.739 2.4,2.61 5.46,3.916 9.184,3.916 3.722,0 6.748,-1.534 9.077,-4.604 v 4.181 z" />
        </g>
        <g
           transform="translate(552.708,33.2354)"
           id="g170">
          <path
             id="path172"
             style="fill:#231f20;fill-opacity:1;fill-rule:nonzero;stroke:none"
             d="m 0,0 h 16.143 c 0,2.363 -0.742,4.181 -2.223,5.451 -1.482,1.271 -3.309,1.905 -5.479,1.905 -2.17,0 -4.12,-0.661 -5.848,-1.984 -1.729,-1.323 -2.593,-3.114 -2.593,-5.372 m 22.071,-4.658 h -22.071 c 0.141,-2.047 1.075,-3.696 2.805,-4.948 1.728,-1.253 3.705,-1.88 5.927,-1.88 3.529,0 6.21,1.112 8.046,3.335 l 3.387,-3.705 c -3.035,-3.141 -6.986,-4.711 -11.855,-4.711 -3.953,0 -7.314,1.314 -10.083,3.943 -2.771,2.629 -4.156,6.157 -4.156,10.586 0,4.428 1.411,7.947 4.235,10.559 2.823,2.611 6.148,3.917 9.977,3.917 3.828,0 7.083,-1.157 9.765,-3.467 2.681,-2.312 4.023,-5.496 4.023,-9.554 z" />
        </g>
        <g
           transform="translate(596.0566,39.6924)"
           id="g174">
          <path
             id="path176"
             style="fill:#231f20;fill-opacity:1;fill-rule:nonzero;stroke:none"
             d="m 0,0 c -2.93,0 -5.135,-0.953 -6.616,-2.858 -1.483,-1.906 -2.224,-4.464 -2.224,-7.675 v -12.068 h -5.928 v 28.159 h 5.928 v -5.664 c 0.953,1.764 2.25,3.21 3.891,4.34 1.64,1.129 3.378,1.711 5.214,1.746 l 0.052,-5.98 z" />
        </g>
        <g
           transform="translate(624.1074,40.4863)"
           id="g178">
          <path
             id="path180"
             style="fill:#231f20;fill-opacity:1;fill-rule:nonzero;stroke:none"
             d="m 0,0 v -14.291 c 0,-1.341 0.352,-2.408 1.059,-3.202 0.705,-0.794 1.693,-1.191 2.963,-1.191 1.27,0 2.488,0.617 3.652,1.853 l 2.435,-4.182 c -2.083,-1.871 -4.385,-2.805 -6.907,-2.805 -2.523,0 -4.677,0.874 -6.458,2.62 -1.782,1.747 -2.673,4.102 -2.673,7.066 v 14.132 h -3.546 v 4.764 h 3.546 v 8.839 h 5.929 v -8.839 h 7.409 v -4.764 z" />
        </g>
        <g
           transform="translate(644.8545,32.335)"
           id="g182">
          <path
             id="path184"
             style="fill:#231f20;fill-opacity:1;fill-rule:nonzero;stroke:none"
             d="m 0,0 v -15.243 h -5.928 v 39.22 h 5.928 v -16.197 c 0.848,1.729 2.126,3.088 3.838,4.076 1.711,0.988 3.555,1.482 5.531,1.482 3.175,0 5.742,-0.971 7.7,-2.911 1.959,-1.941 2.939,-4.746 2.939,-8.415 v -17.255 h -5.929 v 15.455 c 0,5.187 -2.152,7.78 -6.457,7.78 -2.047,0 -3.829,-0.68 -5.346,-2.037 -1.517,-1.359 -2.276,-3.344 -2.276,-5.955" />
        </g>
        <g
           transform="translate(687.8857,39.6924)"
           id="g186">
          <path
             id="path188"
             style="fill:#231f20;fill-opacity:1;fill-rule:nonzero;stroke:none"
             d="m 0,0 c -2.93,0 -5.135,-0.953 -6.616,-2.858 -1.483,-1.906 -2.224,-4.464 -2.224,-7.675 v -12.068 h -5.928 v 28.159 h 5.928 v -5.664 c 0.953,1.764 2.25,3.21 3.891,4.34 1.64,1.129 3.378,1.711 5.214,1.746 l 0.052,-5.98 z" />
        </g>
        <g
           transform="translate(700.1914,24.5283)"
           id="g190">
          <path
             id="path192"
             style="fill:#231f20;fill-opacity:1;fill-rule:nonzero;stroke:none"
             d="m 0,0 c 1.676,-1.712 3.802,-2.567 6.378,-2.567 2.575,0 4.701,0.855 6.378,2.567 1.675,1.711 2.514,3.925 2.514,6.643 0,2.716 -0.839,4.93 -2.514,6.642 -1.677,1.711 -3.803,2.567 -6.378,2.567 -2.576,0 -4.702,-0.856 -6.378,-2.567 -1.677,-1.712 -2.515,-3.926 -2.515,-6.642 0,-2.718 0.838,-4.932 2.515,-6.643 m 16.964,-3.652 c -2.824,-2.805 -6.352,-4.208 -10.586,-4.208 -4.234,0 -7.764,1.403 -10.586,4.208 -2.823,2.805 -4.234,6.236 -4.234,10.295 0,4.057 1.411,7.489 4.234,10.294 2.822,2.805 6.352,4.208 10.586,4.208 4.234,0 7.762,-1.403 10.586,-4.208 2.822,-2.805 4.233,-6.237 4.233,-10.294 0,-4.059 -1.411,-7.49 -4.233,-10.295" />
        </g>
        <g
           transform="translate(747.7998,30.0068)"
           id="g194">
          <path
             id="path196"
             style="fill:#231f20;fill-opacity:1;fill-rule:nonzero;stroke:none"
             d="m 0,0 v 15.243 h 5.928 v -28.158 h -5.928 v 5.134 c -0.953,-1.729 -2.268,-3.088 -3.943,-4.075 -1.676,-0.989 -3.485,-1.483 -5.425,-1.483 -3.176,0 -5.743,0.971 -7.701,2.911 -1.958,1.941 -2.938,4.746 -2.938,8.416 v 17.255 h 5.928 v -15.455 c 0,-5.187 2.152,-7.781 6.457,-7.781 2.047,0 3.829,0.68 5.347,2.038 1.516,1.358 2.275,3.343 2.275,5.955" />
        </g>
        <g
           transform="translate(766.377,32.2559)"
           id="g198">
          <path
             id="path200"
             style="fill:#231f20;fill-opacity:1;fill-rule:nonzero;stroke:none"
             d="m 0,0 c 0,-2.312 0.715,-4.306 2.144,-5.981 1.429,-1.676 3.352,-2.514 5.769,-2.514 2.417,0 4.375,0.811 5.875,2.434 1.5,1.624 2.25,3.644 2.25,6.061 0,2.416 -0.76,4.463 -2.276,6.14 -1.518,1.675 -3.476,2.513 -5.875,2.513 -2.401,0 -4.314,-0.864 -5.743,-2.592 -1.429,-1.73 -2.144,-3.75 -2.144,-6.061 m 21.966,12.994 v -24.558 c 0,-4.976 -1.35,-8.707 -4.049,-11.196 -2.699,-2.487 -6.166,-3.731 -10.4,-3.731 -4.235,0 -8.064,1.323 -11.487,3.97 l 2.806,4.499 c 2.752,-2.082 5.531,-3.123 8.336,-3.123 2.806,0 5.028,0.724 6.669,2.17 1.641,1.448 2.462,3.758 2.462,6.934 v 3.599 c -0.883,-1.66 -2.144,-2.983 -3.785,-3.97 -1.641,-0.988 -3.485,-1.482 -5.531,-1.482 -3.741,0 -6.81,1.305 -9.21,3.916 -2.4,2.612 -3.598,5.858 -3.598,9.74 0,3.881 1.198,7.127 3.598,9.739 2.4,2.61 5.46,3.916 9.184,3.916 3.722,0 6.748,-1.534 9.077,-4.604 v 4.181 z" />
        </g>
        <g
           transform="translate(802.8447,32.335)"
           id="g202">
          <path
             id="path204"
             style="fill:#231f20;fill-opacity:1;fill-rule:nonzero;stroke:none"
             d="m 0,0 v -15.243 h -5.928 v 39.22 h 5.928 v -16.197 c 0.848,1.729 2.126,3.088 3.838,4.076 1.711,0.988 3.555,1.482 5.531,1.482 3.175,0 5.742,-0.971 7.7,-2.911 1.959,-1.941 2.939,-4.746 2.939,-8.415 v -17.255 h -5.929 v 15.455 c 0,5.187 -2.152,7.78 -6.457,7.78 -2.047,0 -3.829,-0.68 -5.346,-2.037 -1.517,-1.359 -2.276,-3.344 -2.276,-5.955" />
        </g>
        <g
           transform="translate(849.7393,31.0381)"
           id="g206">
          <path
             id="path208"
             style="fill:#231f20;fill-opacity:1;fill-rule:nonzero;stroke:none"
             d="m 0,0 c 0,-2.699 0.864,-4.896 2.593,-6.589 1.728,-1.694 3.758,-2.541 6.087,-2.541 2.329,0 4.304,0.856 5.927,2.568 1.623,1.71 2.436,3.907 2.436,6.588 0,2.682 -0.813,4.923 -2.436,6.723 -1.623,1.799 -3.617,2.699 -5.98,2.699 -2.364,0 -4.393,-0.9 -6.087,-2.699 -1.693,-1.8 -2.54,-4.049 -2.54,-6.749 m -1.959,-10.347 c -2.646,2.681 -3.97,6.21 -3.97,10.585 0,4.375 1.359,7.868 4.076,10.481 2.717,2.61 5.955,3.916 9.712,3.916 3.758,0 6.784,-1.588 9.078,-4.764 v 15.456 h 5.927 v -39.273 h -5.927 v 4.234 c -2.189,-3.105 -5.381,-4.658 -9.581,-4.658 -3.564,0 -6.669,1.341 -9.315,4.023" />
        </g>
        <path
           id="path210"
           style="fill:#231f20;fill-opacity:1;fill-rule:nonzero;stroke:none"
           d="m 887.105,17.092 h -5.928 v 28.158 h 5.928 z m -5.557,33.768 c -0.74,0.742 -1.111,1.622 -1.111,2.647 0,1.022 0.371,1.905 1.111,2.646 0.741,0.741 1.623,1.112 2.646,1.112 1.024,0 1.907,-0.371 2.647,-1.112 0.741,-0.741 1.112,-1.624 1.112,-2.646 0,-1.025 -0.371,-1.905 -1.112,-2.647 -0.74,-0.741 -1.623,-1.111 -2.647,-1.111 -1.023,0 -1.905,0.37 -2.646,1.111" />
        <g
           transform="translate(903.1426,17.0918)"
           id="g212">
          <path
             id="path214"
             style="fill:#231f20;fill-opacity:1;fill-rule:nonzero;stroke:none"
             d="m 0,0 -11.326,28.158 h 6.139 l 8.575,-21.277 8.574,21.277 h 6.14 l -11.327,-28.158 z" />
        </g>
        <g
           transform="translate(930.083,33.2354)"
           id="g216">
          <path
             id="path218"
             style="fill:#231f20;fill-opacity:1;fill-rule:nonzero;stroke:none"
             d="m 0,0 h 16.143 c 0,2.363 -0.742,4.181 -2.223,5.451 -1.482,1.271 -3.309,1.905 -5.479,1.905 -2.17,0 -4.12,-0.661 -5.848,-1.984 -1.729,-1.323 -2.593,-3.114 -2.593,-5.372 m 22.071,-4.658 h -22.071 c 0.141,-2.047 1.075,-3.696 2.805,-4.948 1.728,-1.253 3.705,-1.88 5.927,-1.88 3.529,0 6.21,1.112 8.046,3.335 l 3.387,-3.705 c -3.035,-3.141 -6.986,-4.711 -11.855,-4.711 -3.953,0 -7.314,1.314 -10.083,3.943 -2.771,2.629 -4.156,6.157 -4.156,10.586 0,4.428 1.411,7.947 4.235,10.559 2.823,2.611 6.148,3.917 9.977,3.917 3.828,0 7.083,-1.157 9.765,-3.467 2.681,-2.312 4.023,-5.496 4.023,-9.554 z" />
        </g>
        <g
           transform="translate(973.4316,39.6924)"
           id="g220">
          <path
             id="path222"
             style="fill:#231f20;fill-opacity:1;fill-rule:nonzero;stroke:none"
             d="m 0,0 c -2.93,0 -5.135,-0.953 -6.616,-2.858 -1.483,-1.906 -2.224,-4.464 -2.224,-7.675 v -12.068 h -5.928 v 28.159 h 5.928 v -5.664 c 0.953,1.764 2.25,3.21 3.891,4.34 1.64,1.129 3.378,1.711 5.214,1.746 l 0.052,-5.98 z" />
        </g>
        <g
           transform="translate(999.7354,25.5078)"
           id="g224">
          <path
             id="path226"
             style="fill:#231f20;fill-opacity:1;fill-rule:nonzero;stroke:none"
             d="m 0,0 c 0,-2.683 -0.971,-4.826 -2.91,-6.432 -1.942,-1.605 -4.429,-2.408 -7.464,-2.408 -2.046,0 -4.173,0.371 -6.377,1.112 -2.206,0.741 -4.155,1.782 -5.849,3.123 l 2.858,4.605 c 3.282,-2.471 6.458,-3.705 9.527,-3.705 1.341,0 2.4,0.309 3.176,0.926 0.775,0.617 1.164,1.402 1.164,2.355 0,1.411 -1.87,2.682 -5.61,3.811 -0.283,0.106 -0.494,0.176 -0.635,0.212 -5.858,1.588 -8.786,4.234 -8.786,7.939 0,2.61 1.013,4.701 3.043,6.273 2.029,1.569 4.666,2.354 7.913,2.354 3.246,0 6.316,-0.952 9.21,-2.857 l -2.224,-4.394 c -2.294,1.517 -4.781,2.276 -7.463,2.276 -1.411,0 -2.558,-0.256 -3.44,-0.767 -0.882,-0.512 -1.323,-1.279 -1.323,-2.303 0,-0.918 0.459,-1.588 1.377,-2.011 0.634,-0.318 1.525,-0.618 2.672,-0.9 1.146,-0.282 2.161,-0.564 3.043,-0.847 0.882,-0.283 1.738,-0.6 2.568,-0.953 0.828,-0.352 1.719,-0.847 2.673,-1.481 1.905,-1.271 2.857,-3.247 2.857,-5.928" />
        </g>
        <path
           id="path228"
           style="fill:#231f20;fill-opacity:1;fill-rule:nonzero;stroke:none"
           d="m 1012.385,17.092 h -5.928 v 28.158 h 5.928 z m -5.558,33.768 c -0.74,0.742 -1.111,1.622 -1.111,2.647 0,1.022 0.371,1.905 1.111,2.646 0.741,0.741 1.623,1.112 2.647,1.112 1.023,0 1.906,-0.371 2.646,-1.112 0.741,-0.741 1.112,-1.624 1.112,-2.646 0,-1.025 -0.371,-1.905 -1.112,-2.647 -0.74,-0.741 -1.623,-1.111 -2.646,-1.111 -1.024,0 -1.906,0.37 -2.647,1.111" />
        <g
           transform="translate(1028.2637,40.4863)"
           id="g230">
          <path
             id="path232"
             style="fill:#231f20;fill-opacity:1;fill-rule:nonzero;stroke:none"
             d="m 0,0 v -14.291 c 0,-1.341 0.352,-2.408 1.059,-3.202 0.705,-0.794 1.693,-1.191 2.963,-1.191 1.27,0 2.488,0.617 3.652,1.853 l 2.435,-4.182 c -2.083,-1.871 -4.385,-2.805 -6.907,-2.805 -2.523,0 -4.677,0.874 -6.458,2.62 -1.782,1.747 -2.673,4.102 -2.673,7.066 v 14.132 h -3.546 v 4.764 h 3.546 v 8.839 h 5.929 v -8.839 h 7.409 v -4.764 z" />
        </g>
        <g
           transform="translate(1046.6289,5.8711)"
           id="g234">
          <path
             id="path236"
             style="fill:#231f20;fill-opacity:1;fill-rule:nonzero;stroke:none"
             d="m 0,0 c -2.576,0 -4.904,0.936 -6.986,2.805 l 2.699,4.816 c 1.235,-1.164 2.515,-1.746 3.838,-1.746 1.323,0 2.398,0.477 3.228,1.429 0.828,0.953 1.244,1.994 1.244,3.123 0,0.494 -3.794,10.144 -11.379,28.952 h 6.351 l 8.415,-20.748 8.416,20.748 h 6.352 l -13.657,-33.451 c -0.811,-1.834 -1.976,-3.282 -3.493,-4.34 -1.517,-1.059 -3.193,-1.588 -5.028,-1.588" />
        </g>
        <g
           transform="translate(1108.0781,60.0166)"
           id="g238">
          <path
             id="path240"
             style="fill:#231f20;fill-opacity:1;fill-rule:nonzero;stroke:none"
             d="m 0,0 h 5.293 l -22.919,-49.117 h -5.292 z" />
        </g>
        <g
           transform="translate(1143.6992,41.4385)"
           id="g242">
          <path
             id="path244"
             style="fill:#231f20;fill-opacity:1;fill-rule:nonzero;stroke:none"
             d="m 0,0 v -6.669 l -24.93,-11.485 v 6.034 l 18.631,8.627 v 0.583 l -18.631,8.415 v 6.034 z" />
        </g>
        <g
           transform="translate(428.3711,134.9365)"
           id="g246">
          <path
             id="path248"
             style="fill:#231f20;fill-opacity:1;fill-rule:nonzero;stroke:none"
             d="m 0,0 3.901,2.817 c 4.912,2.89 8.38,4.335 10.406,4.335 4.477,0 9.32,-4.047 14.522,-12.137 3.177,-5.061 4.769,-9.105 4.769,-12.139 0,-3.035 -0.976,-5.564 -2.926,-7.587 -1.951,-2.025 -4.227,-3.83 -6.828,-5.419 -2.602,-1.592 -5.094,-3.109 -7.479,-4.552 -2.384,-1.446 -7.261,-3.326 -14.631,-5.635 -7.37,-2.311 -14.489,-3.469 -21.35,-3.469 -6.865,0 -13.802,0.904 -20.81,2.71 -7.011,1.805 -14.234,4.84 -21.676,9.103 -7.444,4.261 -14.127,9.463 -20.049,15.608 -5.928,6.139 -10.805,14.014 -14.632,23.626 -3.83,9.609 -5.744,20.051 -5.744,31.322 0,11.271 1.876,21.493 5.635,30.671 3.756,9.176 8.563,16.762 14.415,22.76 5.853,5.995 12.535,11.018 20.05,15.065 14.16,7.803 28.396,11.705 42.702,11.705 6.79,0 13.69,-1.05 20.701,-3.143 7.007,-2.096 12.318,-4.226 15.931,-6.394 l 5.202,-3.035 c 2.602,-1.592 4.623,-2.892 6.07,-3.901 3.756,-3.035 5.635,-6.47 5.635,-10.297 0,-3.83 -1.516,-7.84 -4.551,-12.03 -5.636,-7.803 -10.696,-11.705 -15.173,-11.705 -2.602,0 -6.286,1.589 -11.055,4.769 -6.069,4.911 -14.164,7.369 -24.277,7.369 -9.396,0 -18.642,-3.25 -27.745,-9.753 -4.336,-3.181 -7.95,-7.662 -10.838,-13.439 -2.893,-5.782 -4.336,-12.322 -4.336,-19.618 0,-7.298 1.443,-13.838 4.336,-19.616 2.888,-5.782 6.573,-10.334 11.054,-13.656 8.813,-6.36 17.992,-9.537 27.529,-9.537 4.477,0 8.704,0.575 12.68,1.733 3.973,1.156 6.828,2.311 8.562,3.469" />
        </g>
        <g
           transform="translate(518.3232,134.8281)"
           id="g250">
          <path
             id="path252"
             style="fill:#231f20;fill-opacity:1;fill-rule:nonzero;stroke:none"
             d="m 0,0 c 4.623,-3.543 9.321,-5.311 14.09,-5.311 4.768,0 9.537,1.805 14.306,5.419 4.768,3.611 7.153,8.958 7.153,16.04 0,7.079 -2.242,12.356 -6.72,15.824 -4.48,3.468 -9.32,5.202 -14.522,5.202 -5.203,0 -10.046,-1.808 -14.524,-5.419 -4.48,-3.614 -6.72,-8.924 -6.72,-15.932 0,-7.01 2.311,-12.284 6.937,-15.823 m -27.095,58.417 c 12.139,11.271 26.011,16.907 41.618,16.907 15.607,0 29.405,-5.602 41.401,-16.799 11.993,-11.2 17.991,-25.469 17.991,-42.81 0,-11.996 -3.109,-22.652 -9.32,-31.972 -6.215,-9.321 -13.765,-16.186 -22.652,-20.593 -8.887,-4.409 -18.099,-6.611 -27.636,-6.611 -9.538,0 -18.787,2.348 -27.746,7.045 -8.961,4.694 -16.511,11.631 -22.652,20.809 -6.143,9.175 -9.212,19.543 -9.212,31.105 0,17.341 6.07,31.647 18.208,42.919" />
        </g>
        <g
           transform="translate(647.7266,137.3203)"
           id="g254">
          <path
             id="path256"
             style="fill:#231f20;fill-opacity:1;fill-rule:nonzero;stroke:none"
             d="m 0,0 c 3.756,-3.901 8.309,-5.853 13.656,-5.853 5.345,0 9.788,1.952 13.331,5.853 3.539,3.902 5.311,8.2 5.311,12.897 0,4.695 -1.7,9.067 -5.094,13.115 -3.397,4.044 -7.986,6.069 -13.765,6.069 -5.781,0 -10.404,-1.988 -13.873,-5.961 -3.467,-3.976 -5.202,-8.346 -5.202,-13.114 0,-4.769 1.877,-9.104 5.636,-13.006 m 35.224,117.81 c 1.084,2.092 2.997,3.576 5.744,4.443 2.743,0.867 6.394,1.301 10.946,1.301 4.552,0 8.2,-0.434 10.946,-1.301 2.744,-0.867 4.661,-2.384 5.744,-4.552 1.084,-2.168 1.735,-4.085 1.952,-5.744 0.216,-1.663 0.325,-4.156 0.325,-7.478 v -129.406 c 0,-3.326 -0.109,-5.819 -0.325,-7.478 -0.217,-1.663 -0.905,-3.506 -2.06,-5.528 -2.167,-3.901 -8.273,-5.852 -18.315,-5.852 -10.046,0 -15.645,3.539 -16.8,10.621 -6.069,-6.937 -14.523,-10.404 -25.36,-10.404 -13.006,0 -24.857,5.67 -35.549,17.015 -10.696,11.343 -16.04,24.566 -16.04,39.667 0,15.099 5.381,28.359 16.148,39.776 10.764,11.414 22.577,17.124 35.441,17.124 10.692,0 19,-3.614 24.927,-10.838 v 45.519 c 0,3.323 0.108,5.816 0.324,7.479 0.217,1.659 0.868,3.539 1.952,5.636" />
        </g>
        <g
           transform="translate(800.3242,157.6963)"
           id="g258">
          <path
             id="path260"
             style="fill:#231f20;fill-opacity:1;fill-rule:nonzero;stroke:none"
             d="m 0,0 c 5.49,0 8.237,2.31 8.237,6.936 0,3.323 -1.266,5.995 -3.794,8.02 -2.529,2.022 -6.143,3.035 -10.838,3.035 -4.697,0 -9.357,-1.917 -13.98,-5.744 -4.627,-3.831 -6.937,-7.912 -6.937,-12.247 z m 45.736,6.394 c 0,-8.887 -2.204,-15.464 -6.611,-19.725 -4.409,-4.264 -9.286,-6.395 -14.631,-6.395 h -51.372 c 0,-4.046 2.385,-7.444 7.153,-10.187 4.769,-2.747 9.537,-4.118 14.306,-4.118 8.379,0 14.957,0.867 19.726,2.6 l 2.383,0.868 c 3.469,1.588 6.358,2.384 8.671,2.384 4.623,0 8.596,-3.252 11.922,-9.755 1.876,-3.901 2.818,-7.227 2.818,-9.97 0,-12.864 -15.39,-19.292 -46.17,-19.292 -10.696,0 -20.196,1.842 -28.504,5.528 -8.312,3.685 -14.777,8.562 -19.4,14.631 -9.104,11.705 -13.656,24.781 -13.656,39.233 0,18.208 5.887,32.765 17.666,43.678 11.776,10.909 26.479,16.365 44.11,16.365 20.084,0 34.825,-7.082 44.22,-21.242 4.91,-7.516 7.369,-15.716 7.369,-24.603" />
        </g>
        <g
           transform="translate(1001.2607,169.1846)"
           id="g262">
          <path
             id="path264"
             style="fill:#231f20;fill-opacity:1;fill-rule:nonzero;stroke:none"
             d="m 0,0 -14.09,0.867 v -29.913 c 0,-3.901 0.613,-6.72 1.843,-8.454 1.226,-1.733 3.539,-2.601 6.936,-2.601 3.394,0 5.995,-0.108 7.803,-0.325 1.806,-0.217 3.649,-0.904 5.528,-2.059 3.468,-1.88 5.203,-6.72 5.203,-14.523 0,-9.104 -2.026,-14.669 -6.07,-16.69 -2.168,-1.013 -4.085,-1.626 -5.744,-1.843 -1.663,-0.217 -4.085,-0.325 -7.262,-0.325 -14.452,0 -25.723,3.756 -33.814,11.271 -8.095,7.512 -12.139,18.642 -12.139,33.381 v 32.081 c -6.936,-0.579 -12.717,-0.867 -17.34,-0.867 l -19.726,0.867 v -29.913 c 0,-3.901 0.613,-6.72 1.843,-8.454 1.226,-1.733 3.539,-2.601 6.936,-2.601 3.394,0 5.994,-0.108 7.803,-0.325 1.806,-0.217 3.72,-0.904 5.744,-2.059 3.323,-1.88 4.986,-6.72 4.986,-14.523 0,-9.104 -2.025,-14.669 -6.069,-16.69 -2.168,-1.013 -4.085,-1.626 -5.744,-1.843 -1.663,-0.217 -4.085,-0.325 -7.262,-0.325 -14.452,0 -25.723,3.756 -33.814,11.271 -8.095,7.512 -12.139,18.642 -12.139,33.381 v 32.081 c -2.892,-0.434 -5.89,-0.651 -8.995,-0.651 -3.109,0 -5.711,1.226 -7.804,3.685 -2.096,2.456 -3.143,6.645 -3.143,12.573 0,5.923 0.359,10.221 1.084,12.897 0.721,2.672 1.734,4.586 3.035,5.744 2.309,1.876 5.202,2.818 8.67,2.818 l 7.153,-0.867 v 22.326 c 0,3.322 0.109,5.778 0.325,7.37 0.217,1.588 0.901,3.322 2.06,5.202 1.876,3.611 7.44,5.419 16.69,5.419 9.825,0 15.678,-2.675 17.558,-8.02 0.721,-2.313 1.083,-5.998 1.083,-11.055 v -20.592 c 6.791,0.142 13.223,0.217 19.292,0.217 l 17.774,-0.217 v 21.676 c 0,3.322 0.109,5.778 0.326,7.37 0.216,1.588 0.83,3.322 1.842,5.202 2.022,3.611 7.658,5.419 16.908,5.419 9.825,0 15.606,-2.675 17.34,-8.02 0.867,-2.313 1.3,-5.998 1.3,-11.055 v -21.242 c 6.358,0.576 11.163,0.867 14.415,0.867 3.251,0 5.707,-0.109 7.37,-0.326 1.659,-0.216 3.502,-0.904 5.528,-2.059 3.901,-1.88 5.852,-7.444 5.852,-16.69 0,-9.104 -1.951,-14.669 -5.852,-16.691 -2.168,-1.012 -4.085,-1.625 -5.744,-1.842 -1.664,-0.217 -4.157,-0.325 -7.479,-0.325" />
        </g>
        <g
           transform="translate(1096.6328,157.6963)"
           id="g266">
          <path
             id="path268"
             style="fill:#231f20;fill-opacity:1;fill-rule:nonzero;stroke:none"
             d="m 0,0 c 5.49,0 8.237,2.31 8.237,6.936 0,3.323 -1.266,5.995 -3.794,8.02 -2.529,2.022 -6.143,3.035 -10.838,3.035 -4.697,0 -9.357,-1.917 -13.98,-5.744 -4.627,-3.831 -6.937,-7.912 -6.937,-12.247 z m 45.736,6.394 c 0,-8.887 -2.204,-15.464 -6.611,-19.725 -4.409,-4.264 -9.286,-6.395 -14.631,-6.395 h -51.372 c 0,-4.046 2.385,-7.444 7.153,-10.187 4.769,-2.747 9.537,-4.118 14.306,-4.118 8.379,0 14.957,0.867 19.726,2.6 l 2.383,0.868 c 3.469,1.588 6.358,2.384 8.671,2.384 4.623,0 8.596,-3.252 11.922,-9.755 1.876,-3.901 2.818,-7.227 2.818,-9.97 0,-12.864 -15.39,-19.292 -46.17,-19.292 -10.696,0 -20.196,1.842 -28.504,5.528 -8.312,3.685 -14.777,8.562 -19.4,14.631 -9.104,11.705 -13.656,24.781 -13.656,39.233 0,18.208 5.887,32.765 17.666,43.678 11.776,10.909 26.479,16.365 44.11,16.365 20.084,0 34.825,-7.082 44.22,-21.242 4.91,-7.516 7.369,-15.716 7.369,-24.603" />
        </g>
      </g>
    </g>
  </g>
</svg>
